<svg width="36" height="36" viewBox="0 0 36 36" xmlns="http://www.w3.org/2000/svg" xmlns:xlink="http://www.w3.org/1999/xlink">
    <defs>
        <path id="noti8mlpma" d="M0 0h24v24H0z"/>
    </defs>
    <g transform="translate(6 6)" fill="none" fill-rule="evenodd">
        <mask id="m49ivt5bib" fill="#fff">
            <use xlink:href="#noti8mlpma"/>
        </mask>
        <path d="M23.963 1.058c-.575 1.324-1.154 2.646-1.723 3.972-2.604 6.07-5.205 12.142-7.808 18.214-.27.629-.718.88-1.253.699-.369-.124-.568-.393-.654-.767-.679-2.95-1.364-5.9-2.04-8.85-.103-.451-.36-.709-.811-.813-2.94-.674-5.877-1.357-8.815-2.037-.512-.12-.814-.432-.855-.891-.038-.413.22-.787.693-.99L22.827.102s.204-.112.455-.101c.376-.013.688.263.713.7 0 0 .024.22-.032.357" fill="#231F20" mask="url(#m49ivt5bib)"/>
    </g>
</svg>
