<svg width="66" height="17" viewBox="0 0 66 17" xmlns="http://www.w3.org/2000/svg" xmlns:xlink="http://www.w3.org/1999/xlink">
    <defs>
        <path id="8olswscr7a" d="M0 16.086h65.774V0H0z"/>
    </defs>
    <g transform="translate(.16 .208)" fill="none" fill-rule="evenodd">
        <path d="M49.897 3.608c-.353-.257-.806-.389-1.361-.396-.54.007-.99.126-1.35.356-.36.23-.54.53-.54.9 0 .295.122.546.366.753.244.208.647.368 1.21.481l2.18.453c1.193.25 2.077.646 2.655 1.189.577.543.87 1.257.877 2.14 0 .8-.227 1.505-.68 2.117-.454.611-1.09 1.087-1.907 1.426-.817.34-1.761.51-2.833.51-1.088 0-2.027-.157-2.818-.47-.79-.313-1.413-.763-1.867-1.347-.453-.585-.729-1.278-.826-2.078h3.351c.075.476.298.838.67 1.087.37.25.867.377 1.49.385.614-.008 1.105-.127 1.473-.357.367-.23.55-.541.55-.934 0-.317-.134-.577-.404-.781-.27-.204-.69-.366-1.26-.487l-2.024-.407c-1.162-.234-2.04-.646-2.632-1.234-.592-.589-.884-1.34-.877-2.253 0-.777.21-1.455.63-2.033.42-.577 1.018-1.02 1.794-1.33C46.54.99 47.449.834 48.49.834c1.012 0 1.896.155 2.654.464.757.31 1.352.75 1.783 1.32.43.57.676 1.243.736 2.02h-3.126a1.562 1.562 0 0 0-.641-1.03M61.737 3.608c-.353-.257-.806-.389-1.361-.396-.54.007-.99.126-1.35.356-.36.23-.54.53-.54.9 0 .295.122.546.366.753.243.208.647.368 1.209.481l2.182.453c1.192.25 2.076.646 2.654 1.189.577.543.87 1.257.877 2.14 0 .8-.227 1.505-.68 2.117-.454.611-1.09 1.087-1.907 1.426-.817.34-1.762.51-2.834.51-1.087 0-2.026-.157-2.817-.47-.79-.313-1.413-.763-1.867-1.347-.453-.585-.729-1.278-.826-2.078h3.351c.075.476.298.838.67 1.087.37.25.867.377 1.49.385.614-.008 1.105-.127 1.472-.357.368-.23.551-.541.551-.934 0-.317-.134-.577-.404-.781-.27-.204-.69-.366-1.26-.487l-2.024-.407c-1.162-.234-2.04-.646-2.632-1.234-.592-.589-.885-1.34-.877-2.253 0-.777.21-1.455.63-2.033.42-.577 1.018-1.02 1.794-1.33C58.38.99 59.289.834 60.33.834c1.012 0 1.896.155 2.654.464.757.31 1.351.75 1.782 1.32.432.57.677 1.243.737 2.02h-3.127a1.562 1.562 0 0 0-.64-1.03M0 .906h3.29v4.967h4.622V.906h3.306v12.618H7.912V8.557H3.289v4.967H0z" fill="#FFF"/>
        <mask id="h1rvbdsmab" fill="#fff">
            <use xlink:href="#8olswscr7a"/>
        </mask>
        <path d="M12.932 13.525h3.272V4.06h-3.272v9.464zm.81-10.693a1.528 1.528 0 0 1-.594-.549 1.426 1.426 0 0 1-.216-.767c0-.273.072-.525.216-.758.145-.232.342-.417.593-.553.251-.137.524-.205.818-.205a1.66 1.66 0 0 1 1.407.758c.147.233.22.485.22.758 0 .28-.073.535-.22.767a1.57 1.57 0 0 1-.593.55c-.248.133-.52.2-.814.2-.294 0-.567-.067-.818-.2zM41.371 6.978c0-3.592-2.893-6.505-6.462-6.505-1.736 0-3.31.69-4.471 1.812a6.505 6.505 0 0 1 1.99 4.693c0 1.846-.764 3.51-1.99 4.694a6.416 6.416 0 0 0 8.509.381l-.007.01a.683.683 0 0 1 .739.163l.658.749.133.162h.001c.095.105.23.173.383.173a.519.519 0 0 0 .517-.52V7.066l-.004.003c0-.03.004-.06.004-.09M28.448 6.978c0-1.845.764-3.51 1.99-4.693A6.415 6.415 0 0 0 25.966.473c-3.569 0-6.462 2.913-6.462 6.505 0 .032.004.063.005.094l-.005-.007v8.5c0 .288.231.52.517.52a.512.512 0 0 0 .383-.173h.002l.132-.162 2.271-2.582a.681.681 0 0 1 .733-.157l-.004-.006a6.415 6.415 0 0 0 6.9-1.333 6.506 6.506 0 0 1-1.99-4.694" fill="#FFF" mask="url(#h1rvbdsmab)"/>
        <path d="M28.448 6.978c0-.228.012-.453.034-.675.006-.051.017-.1.023-.15.022-.172.045-.342.08-.509.009-.044.023-.086.033-.13.04-.172.081-.342.134-.508l.033-.09c.059-.178.122-.353.196-.523l.022-.047c.081-.183.169-.363.266-.537l.008-.013a6.551 6.551 0 0 1 1.16-1.506c.457.44.849.948 1.162 1.506l.008.013c.096.174.184.353.264.536.008.016.016.031.023.048.074.17.138.345.197.523l.033.09c.052.166.094.336.133.508.01.044.024.086.034.13.034.167.057.337.079.508.006.05.018.1.023.151a6.505 6.505 0 0 0-1.955-4.018 6.506 6.506 0 0 0-1.99 4.693M32.428 6.978c0 .229-.012.454-.035.676-.005.051-.016.1-.023.15-.022.172-.045.342-.08.509-.009.044-.023.086-.033.13-.04.172-.08.342-.134.508l-.032.09a6.399 6.399 0 0 1-.197.523c-.007.017-.015.032-.023.048-.08.183-.168.362-.264.536l-.008.013a6.551 6.551 0 0 1-1.161 1.506 6.551 6.551 0 0 1-1.161-1.506l-.008-.013a6.522 6.522 0 0 1-.266-.537l-.022-.047a6.497 6.497 0 0 1-.196-.523c-.01-.03-.024-.06-.033-.09a6.587 6.587 0 0 1-.134-.508c-.01-.044-.024-.086-.033-.13a6.433 6.433 0 0 1-.08-.508c-.006-.05-.017-.1-.022-.151a6.505 6.505 0 0 0 1.955 4.018 6.506 6.506 0 0 0 1.99-4.694" fill="#FFF" mask="url(#h1rvbdsmab)"/>
        <path d="M32.37 6.152a6.542 6.542 0 0 0-.08-.508c-.009-.044-.023-.086-.033-.13a6.377 6.377 0 0 0-.134-.508l-.032-.09a6.518 6.518 0 0 0-.196-.523l-.024-.048a6.531 6.531 0 0 0-.264-.536l-.008-.013a6.551 6.551 0 0 0-1.161-1.507 6.55 6.55 0 0 0-1.161 1.507l-.008.013a6.49 6.49 0 0 0-.266.537l-.022.047a6.41 6.41 0 0 0-.196.523c-.01.03-.024.06-.033.09a6.478 6.478 0 0 0-.134.508c-.01.044-.024.086-.033.13a6.542 6.542 0 0 0-.08.508c-.006.05-.017.1-.022.151a6.583 6.583 0 0 0 0 1.351c.005.051.016.1.022.15.022.172.045.342.08.509.009.044.023.086.033.13.04.172.081.342.134.508l.033.09c.059.178.122.353.196.523l.022.047c.081.183.169.363.266.537l.008.013a6.549 6.549 0 0 0 1.16 1.507A6.55 6.55 0 0 0 31.6 10.16l.008-.013c.096-.174.183-.353.264-.536l.024-.048c.073-.17.136-.345.196-.523.01-.03.023-.06.032-.09.053-.166.095-.336.134-.508.01-.044.024-.086.034-.13.034-.167.057-.337.08-.508.006-.05.017-.1.022-.151a6.58 6.58 0 0 0 0-1.351c-.005-.051-.016-.1-.023-.15" fill="#FFF" opacity=".514" mask="url(#h1rvbdsmab)"/>
    </g>
</svg>
