<?xml version="1.0" encoding="UTF-8"?>
<svg width="48px" height="48px" viewBox="0 0 48 48" version="1.1" xmlns="http://www.w3.org/2000/svg" xmlns:xlink="http://www.w3.org/1999/xlink">
    <title>A7270BF8-91FA-41D2-9757-E6D4F6B2E88F</title>
    <defs>
        <polygon id="path-1" points="0 0 34.9999829 0 34.9999829 42.2058617 0 42.2058617"></polygon>
    </defs>
    <g id="HOME" stroke="none" stroke-width="1" fill="none" fill-rule="evenodd">
        <g id="HOME/navi" transform="translate(-193.000000, -185.000000)">
            <g id="NAVI/navi_bar_area" transform="translate(0.000000, 164.000000)">
                <g id="ICON/BASIC/navi_area_on" transform="translate(193.000000, 21.000000)">
                    <g id="Group-6" transform="translate(5.999983, 4.000000)">
                        <g id="Group-3" transform="translate(0.000017, 0.000000)">
                            <mask id="mask-2" fill="white">
                                <use xlink:href="#path-1"></use>
                            </mask>
                            <g id="Clip-2"></g>
                        </g>
                        <path d="M9.87709026,1.80105523 C14.8217219,-0.677750906 20.6926616,-0.593613884 25.5828263,2.02719727 C30.3685036,4.59242469 33.7965839,9.39166139 34.7532748,14.8651364 C34.8203394,15.2504154 34.8718422,15.6227503 34.9070419,15.9714812 C34.9120217,16.02874 34.9898494,16.8903324 34.9991029,17.9326019 L34.9990824,18.3307042 C34.9946638,18.8021954 34.973736,19.2933479 34.9244565,19.7519365 C34.6098823,22.9091688 33.197448,26.1832792 30.7260584,29.4806129 C28.6855873,32.2038352 26.1745518,34.5231236 23.746143,36.7666507 C23.3741377,37.1100516 23.0225112,37.4351783 22.6723668,37.7603051 L21.9617034,38.4212185 C21.3855399,38.9561168 20.8090058,39.4913958 20.2358065,40.0301012 L19.1186791,41.0808622 C18.9189671,41.2685525 18.717032,41.4547199 18.5136148,41.6382224 C18.4887897,41.6599229 18.4406217,41.6987553 18.3787444,41.7459634 L18.2525958,41.8445863 C18.1695954,41.9111996 18.1377984,41.9412679 18.1264181,41.9526892 L18.0960352,41.9804811 C17.8944706,42.1457095 17.6910534,42.2058617 17.5057918,42.2058617 C17.21419,42.2058617 16.9670511,42.0573846 16.8403322,41.933273 C16.4964867,41.5636031 15.0562631,40.2551011 14.5138172,39.7624617 C14.2826107,39.5523095 14.1240268,39.4084009 14.0688189,39.3566243 L13.4941374,38.8160153 C12.6426752,38.0153811 11.7623121,37.1880972 10.9064036,36.3604326 C10.5892358,36.0535799 10.2705859,35.7478693 9.95119489,35.4425395 C8.26049767,33.8222356 6.52089139,32.1551043 5.00063483,30.3113232 C2.94386072,27.816908 1.57403657,25.4488886 0.812981981,23.07059 C-0.082572518,20.2738906 -0.241526957,17.2624705 0.352421682,14.3618371 C1.46547328,8.92871741 5.02583041,4.23303397 9.87709026,1.80105523 Z M17.3529527,12.3529351 C14.0440877,12.3529351 11.3529527,15.1235329 11.3529527,18.5296037 C11.3529527,21.9352725 14.0440877,24.7058703 17.3529527,24.7058703 C20.6618119,24.7058703 23.3529527,21.9352725 23.3529527,18.5296037 C23.3529527,15.1235329 20.6618119,12.3529351 17.3529527,12.3529351 Z" id="Combined-Shape" fill="#FF5B2C"></path>
                    </g>
                </g>
            </g>
        </g>
    </g>
</svg>