<?xml version="1.0" encoding="UTF-8"?>
<svg width="40px" height="40px" viewBox="0 0 40 40" version="1.1" xmlns="http://www.w3.org/2000/svg" xmlns:xlink="http://www.w3.org/1999/xlink">
    <title>52560903-B0CB-4D90-811D-BCEEE25E4896</title>
    <defs>
        <polygon id="path-1" points="0 0 28.6930289 0 28.6930289 14.917106 0 14.917106"></polygon>
    </defs>
    <g id="LOGIN/MEMBER" stroke="none" stroke-width="1" fill="none" fill-rule="evenodd">
        <g id="LOGIN/login" transform="translate(-246.000000, -844.000000)">
            <g id="btn_구글로그인" transform="translate(40.000000, 811.000000)">
                <g id="google" transform="translate(206.000000, 33.000000)">
                    <rect id="Rectangle-Copy-3" x="0" y="0" width="40" height="40"></rect>
                    <g id="Group-3" transform="translate(3.995118, 23.911902)">
                        <mask id="mask-2" fill="white">
                            <use xlink:href="#path-1"></use>
                        </mask>
                        <g id="Clip-2"></g>
                        <path d="M28.6930289,10.5149768 C25.7853382,13.2600476 21.6602539,14.9171084 16.2586629,14.9171084 C9.32702083,14.9171084 3.06983574,10.7934484 0,4.78149884 L6.09361563,0 C7.50567834,4.42207333 11.5232199,7.61203411 16.2586629,7.61203411 C18.9090106,7.61203411 21.0501326,6.95063419 22.7007836,5.81300733 L28.6930289,10.5149768 Z" id="Fill-1" fill="#34A853" mask="url(#mask-2)"></path>
                    </g>
                    <path d="M9.54722356,20.4145062 C9.54722356,21.6364105 9.73738197,22.8122589 10.0887358,23.9119016 L3.99512022,28.6934004 C2.72454866,26.2044856 2,23.3919928 2,20.4145062 C2,17.4370195 2.72454866,14.6245268 3.99535762,12.1356119 L10.0887358,16.9173482 C9.73738197,18.0169908 9.54722356,19.1926019 9.54722356,20.4145062" id="Fill-4" fill="#FBBC05"></path>
                    <path d="M32.6477909,6.93818368 L27.4741052,12.0378002 C25.6349576,10.3358706 23.156251,9.30507427 20.2537831,9.30507427 C15.5181027,9.30507427 11.5007986,12.495035 10.0887358,16.9173458 L3.99535762,12.1356095 C7.06495595,6.12365994 13.3221411,2 20.2537831,2 C25.292625,2 29.5608623,3.87428297 32.6477909,6.93818368" id="Fill-6" fill="#EA4335"></path>
                    <path d="M38,20.4145062 C38,21.7138033 37.9069387,22.9817634 37.7196291,24.2050921 C37.0978752,28.2639415 35.4372534,31.8318451 32.6881467,34.4268783 L26.6959014,29.7249089 C28.5901261,28.4194394 29.8386194,26.4862809 30.4705815,24.2050921 L20.4975919,24.2050921 L20.4975919,17.382892 L37.7820656,17.382892 C37.9259308,18.3692943 38,19.3818107 38,20.4145062" id="Fill-8" fill="#4285F4"></path>
                </g>
            </g>
        </g>
    </g>
</svg>