<?xml version="1.0" encoding="UTF-8"?>
<svg width="42px" height="42px" viewBox="0 0 42 42" version="1.1" xmlns="http://www.w3.org/2000/svg" xmlns:xlink="http://www.w3.org/1999/xlink">
    <title>259D0AD2-9D98-4BDD-A7BC-32222F76E84A</title>
    <g id="HOME" stroke="none" stroke-width="1" fill="none" fill-rule="evenodd">
        <g id="HOME/search" transform="translate(-38.000000, -574.000000)">
            <g id="Group" transform="translate(38.000000, 574.000000)">
                <rect id="Rectangle" x="0" y="0" width="42" height="42"></rect>
                <g id="Group-7" transform="translate(6.000000, 5.000000)">
                    <g id="Group-5" transform="translate(5.000000, 0.000000)" fill="#231F20">
                        <path d="M18.2411968,13.2117693 C17.4042889,14.91237 16.5176727,16.6257881 15.6602242,18.2826784 L15.6529117,18.2969746 C15.2946008,18.9894407 14.9362077,19.6819068 14.5802795,20.3755232 C13.3249998,22.82216 12.0684878,25.2682216 10.8118935,27.7142833 L10.4817643,28.357041 L10.1594406,27.7336736 C9.6972762,26.8404023 9.24718968,25.9703007 8.79817127,25.099624 C8.24850372,24.0332361 7.6990005,22.9666017 7.14957944,21.8999674 L7.14078805,21.8830419 C5.96578124,19.6017983 4.75067909,17.242829 3.55127,14.9249409 C3.41833097,14.6680186 3.26895943,14.4203806 3.12394251,14.1798086 C2.88928623,13.7906867 2.66761163,13.4230914 2.52062281,13.033723 C1.50410758,10.3414202 1.85929634,6.48824244 4.94425409,3.94925492 C6.4622896,2.69989098 8.41948402,2.01186168 10.4552258,2.01186168 C11.1303556,2.01186168 11.8058141,2.08827287 12.4626216,2.23904117 C15.0747338,2.83874572 17.1501601,4.55462868 18.3066804,7.07069285 C19.2407865,9.10290168 19.2181918,11.2263931 18.2411968,13.2117693 M20.9186282,8.99173573 C20.9117266,8.75272484 20.8351511,8.45751475 20.7733648,8.21924331 C20.7469906,8.1174439 20.7220954,8.0213137 20.7087029,7.95229715 C20.6025489,7.40369771 20.4932726,7.12623474 20.2757062,6.59957271 C19.028725,3.58165961 16.6543091,1.40550197 13.5898098,0.471970927 C10.495732,-0.470433671 7.18499151,0.0122713869 4.50665628,1.79634928 C2.4940843,3.13699582 1.07858767,5.02928181 0.41323523,7.26870462 C-0.200765603,9.33492876 -0.12854471,11.6016295 0.616587574,13.6511747 C0.809998247,14.1831773 1.09748505,14.6695796 1.37667344,15.1420965 C1.52242983,15.3887486 1.67303381,15.6437812 1.8034258,15.8956916 C2.9299567,18.07226 4.10003376,20.3429868 5.13215987,22.3463566 L6.43082134,24.8657894 C6.65537163,25.3016618 6.87975759,25.7375342 7.10406138,26.1735709 C7.89413659,27.7094357 8.71124328,29.297638 9.53607325,30.8557689 C9.69965891,31.1647823 10.0979009,31.4950758 10.4813535,31.5129051 C10.4906379,31.5134802 10.4999223,31.5134802 10.5091245,31.5134802 C10.8226568,31.5134802 11.0540266,31.276359 11.2419324,31.08377 C11.2794807,31.0454001 11.316043,31.0076875 11.3516194,30.9745759 C11.4687011,30.8655462 11.5241608,30.7298958 11.5607231,30.6404208 L11.5645848,30.6311364 C11.5723902,30.6119926 11.5799492,30.5928487 11.5890692,30.5751016 C12.2287048,29.3330501 12.8692441,28.0914094 13.5097013,26.8496866 L13.6167591,26.642144 C15.5721459,22.8515742 17.5940844,18.9319269 19.5698476,15.0520464 C19.9511641,14.3034633 20.2378292,13.5069794 20.5149636,12.7368697 L20.522276,12.716822 C20.5833228,12.5473206 20.6442874,12.3779014 20.7063202,12.2091395 C20.8054082,11.9393177 20.8474755,11.6661272 20.8884746,11.3997561 C20.9049071,11.2926983 20.9219147,11.1820253 20.9420446,11.0791578 C20.9448381,11.065108 20.9469743,11.0507296 20.9482068,11.0363511 L20.9484532,11.0364333 C21.0703825,9.96979888 20.9406478,9.123278 20.9186282,8.99173573" id="Fill-1"></path>
                        <path d="M10.4741068,7.55627359 C9.5376179,7.55627359 8.77572446,8.31816704 8.77572446,9.25457377 L8.77572446,12.5584126 C8.77572446,13.4949015 9.5376179,14.2567949 10.4741068,14.2567949 C11.4105135,14.2567949 12.172407,13.4949015 12.172407,12.5584126 L12.172407,9.25457377 C12.172407,8.31816704 11.4105135,7.55627359 10.4741068,7.55627359" id="Fill-3"></path>
                    </g>
                    <line x1="0" y1="33.6678227" x2="31" y2="33.6678227" id="Path-2" stroke="#222222" stroke-width="2"></line>
                    <path d="M15.123293,9 C14.5038777,9 14,9.56590598 14,10.2615031 L14,13.0532642 C14,13.7488613 14.5038777,14.3148367 15.123293,14.3148367 C15.7426466,14.3148367 16.2465243,13.7488613 16.2465243,13.0532642 L16.2465243,10.2615031 C16.2465243,9.56590598 15.7426466,9 15.123293,9" id="Fill-4" fill="#231F20"></path>
                </g>
            </g>
        </g>
    </g>
</svg>