<?xml version="1.0" encoding="UTF-8"?>
<svg width="48px" height="48px" viewBox="0 0 48 48" version="1.1" xmlns="http://www.w3.org/2000/svg" xmlns:xlink="http://www.w3.org/1999/xlink">
    <title>F4D5B0B0-732F-4687-BDB7-0D27B7AFE1AA</title>
    <defs>
        <polygon id="path-1" points="0 0 39 0 39 37 0 37"></polygon>
    </defs>
    <g id="HOME" stroke="none" stroke-width="1" fill="none" fill-rule="evenodd">
        <g id="HOME/navi" transform="translate(-624.000000, -676.000000)">
            <g id="NAVI/navi_bar_setting" transform="translate(0.000000, 654.000000)">
                <g id="ICON/BASIC/icon_setting_on" transform="translate(624.000000, 22.000000)">
                    <rect id="Rectangle-Copy-19" x="0" y="0" width="48" height="48"></rect>
                    <g id="Group-3" transform="translate(4.000000, 7.000000)">
                        <mask id="mask-2" fill="white">
                            <use xlink:href="#path-1"></use>
                        </mask>
                        <g id="Clip-2"></g>
                        <path d="M19.50002,24.0758654 C16.4391925,24.0758654 13.9493323,21.5747296 13.9493323,18.5000409 C13.9493323,15.4249683 16.4391925,12.9238325 19.50002,12.9238325 C22.5608474,12.9238325 25.0507077,15.4249683 25.0507077,18.5000409 C25.0507077,21.5747296 22.5608474,24.0758654 19.50002,24.0758654 M38.365632,16.1728137 C35.8570452,11.5759449 33.3438724,6.98214732 30.8498082,2.37644873 C29.9765418,0.763283315 28.7012288,-0.00644459042 26.9520208,4.0632897e-05 C21.9531916,0.0185091821 16.9543624,0.00967938564 11.9559154,0.00468863115 C10.2904033,0.00276911019 9.05254338,0.760979889 8.22093387,2.29467714 C5.69094539,6.9618004 3.15828169,11.627388 0.619885395,16.2895206 C0.270578828,16.9306406 0.0798742587,17.6159095 0,18.3437919 L0,18.7795231 C0.0867533814,19.7435066 0.48994641,20.5708201 0.940911124,21.3931429 C3.3325528,25.7539106 5.72228361,30.1162139 8.07647229,34.5000159 C8.78387541,35.8175751 9.74542391,36.6932606 11.1487649,37 L27.8715302,37 C29.2767821,36.6936445 30.2379484,35.8171912 30.9453516,34.4965608 C33.3977588,29.9161998 35.8902943,25.359641 38.3717467,20.7965558 C39.2132928,19.2501897 39.2075602,17.7153407 38.365632,16.1728137" id="Fill-1" fill="#FF5B2C" mask="url(#mask-2)"></path>
                    </g>
                </g>
            </g>
        </g>
    </g>
</svg>