<?xml version="1.0" encoding="UTF-8"?>
<svg width="13px" height="13px" viewBox="0 0 13 13" version="1.1" xmlns="http://www.w3.org/2000/svg" xmlns:xlink="http://www.w3.org/1999/xlink">
    <title>CFC0866B-63DC-476F-B6BF-F26D8E93A078</title>
    <defs>
        <polygon id="path-1" points="0 0 13 0 13 13 0 13"></polygon>
    </defs>
    <g id="REGION" stroke="none" stroke-width="1" fill="none" fill-rule="evenodd">
        <g id="REGION/result_list_-ver2" transform="translate(-645.000000, -250.000000)">
            <g id="Group-21" transform="translate(612.000000, 243.000000)">
                <g id="icon_info" transform="translate(33.000000, 7.000000)">
                    <g id="Group-3">
                        <mask id="mask-2" fill="white">
                            <use xlink:href="#path-1"></use>
                        </mask>
                        <g id="Clip-2"></g>
                        <path d="M11.8201332,6.50404434 C11.786984,3.55027013 9.46771827,1.1882717 6.4991419,1.18535553 C3.55745564,1.1824688 1.18388008,3.51733083 1.17840595,6.49706159 C1.17297478,9.44977634 3.52057503,11.8220081 6.49815489,11.8217192 C9.45890736,11.8214302 11.7852989,9.4661256 11.8201332,6.50404434 L11.8201332,6.50404434 Z M0,6.0375843 C0.0412223429,5.71707742 0.0755788726,5.39599371 0.14942756,5.07999173 C0.549457305,3.36865315 1.47999471,2.02490309 2.94271503,1.054098 C3.81014188,0.478377779 4.76896644,0.134357548 5.80309524,0.0349202084 C7.67218932,-0.144781193 9.33659977,0.368090233 10.7627665,1.59652594 C11.8840637,2.56235916 12.5976414,3.78368043 12.8707909,5.2361523 C13.2606318,7.30914614 12.7681607,9.16942098 11.3963438,10.7752241 C10.4385628,11.8964213 9.21400381,12.5837476 7.77144151,12.8838176 C7.50370226,12.939497 7.23151396,12.9638894 6.96097345,13.000011 L6.0292002,13.000011 C5.75423811,12.9637246 5.4780951,12.9363107 5.20585187,12.8803291 C4.04890741,12.642531 3.02568152,12.1349061 2.14880731,11.3442145 C1.12937136,10.4249685 0.465776773,9.29228927 0.154370946,7.95370337 C0.0788469997,7.62907616 0.0410850267,7.29922987 0,6.96957586 L0,6.0375843 Z" id="Fill-1" fill="#DDDDDD" mask="url(#mask-2)"></path>
                    </g>
                    <g id="Group" transform="translate(6.000000, 3.000000)" fill="#DDDDDD">
                        <path d="M0.00593736936,4.4959953 C0.00593736936,3.73793551 0.0130350394,2.9798453 5.29762665e-05,2.22181594 C-0.00261623297,2.06808034 0.0951132234,2.01864034 0.399342413,2.02439059 C1.04413843,2.03656044 0.999247189,1.99220134 0.999368516,2.33006673 C1.00009648,3.8108329 0.999853827,5.29159907 0.99942918,6.77236523 C0.999368516,6.99580363 0.998094576,6.99580363 0.545966929,6.99616873 C0.485545738,6.99622957 0.424153926,6.99270032 0.36476402,6.99671637 C0.0840117396,7.01567091 -6.83514261e-05,6.95220515 0.00156957242,6.81565947 C0.0107904771,6.04247864 0.0059980332,5.26923697 0.00593736936,4.4959953" id="Fill-4"></path>
                        <path d="M0.00631955159,0.620455648 C0.00631955159,0.487893328 0.00534893005,0.355370899 0.00692619005,0.222808579 C0.00741150082,0.183195463 -0.00660184767,0.13384861 0.0228807816,0.105604818 C0.221676206,-0.0850407826 0.519111044,0.0468832602 0.76856078,0.0165650647 C0.935689677,-0.00378004022 0.998546195,0.0706192158 0.998112775,0.173581403 C0.996838834,0.471816705 0.996050204,0.770052007 0.998546195,1.06824742 C0.999568707,1.18700698 0.909664887,1.22558289 0.736954916,1.23276352 C0.00559158543,1.26320139 0.00583424082,1.26591407 0.00583424082,0.779506497 C0.00583424082,0.726489548 0.00583424082,0.673472598 0.00631955159,0.620455648" id="Fill-6"></path>
                    </g>
                </g>
            </g>
        </g>
    </g>
</svg>