<svg width="48" height="48" viewBox="0 0 48 48" xmlns="http://www.w3.org/2000/svg" xmlns:xlink="http://www.w3.org/1999/xlink">
    <defs>
        <path id="mxgu16psma" d="M0 0h31v37.518H0z"/>
    </defs>
    <g fill="none" fill-rule="evenodd">
        <path d="M0 0h48v48H0z"/>
        <g transform="translate(9 5)">
            <mask id="uxfhyiyr5b" fill="#fff">
                <use xlink:href="#mxgu16psma"/>
            </mask>
            <path d="M26.097 35.212h-11.1c-3.358 0-6.717 0-10.075-.002-.768 0-1.455-.265-1.935-.747a2.384 2.384 0 0 1-.682-1.707c.004-1.35 1.071-2.414 2.43-2.422.93-.005 1.86-.006 2.79-.006l11.109.002h2.554l4.97.001c1.282.001 2.286.79 2.498 1.962a2.457 2.457 0 0 1-.443 1.94c-.415.55-1.04.893-1.761.966a3.07 3.07 0 0 1-.314.013m-4.833-6.818H10.167s.875-.568 1.39-1.338c.246-.265.337-.5.461-.768.27-.586.525-1.136.717-1.706.477-1.419.347-2.978.231-4.353-.247-2.95-1.148-5.893-2.754-9.001-.84-1.622-.965-3.416-.355-5.051.59-1.58 1.793-2.8 3.389-3.437a6.018 6.018 0 0 1 2.242-.433c1.68 0 3.306.718 4.46 1.97a5.99 5.99 0 0 1 .933 6.774c-1.34 2.61-2.152 4.875-2.555 7.128-.295 1.649-.555 3.606-.244 5.619.148.958.504 1.875 1.089 2.804l.138.224s.976 1.262 1.996 1.568m7.918.675c-.827-.667-1.831-1.011-3.07-1.05-3.07-.098-5.393-1.961-5.781-4.637-.188-1.295-.063-2.65.083-3.927.259-2.286 1.012-4.575 2.302-6.997.946-1.777 1.256-3.576.95-5.5C23.11 3.233 19.992.384 16.123.03c-.218-.02-.441-.03-.662-.03-3.298 0-6.536 2.21-7.697 5.257-.916 2.402-.782 4.763.4 7.015 1.725 3.289 2.575 6.51 2.598 9.847.018 2.57-1.337 4.603-3.623 5.438-.736.268-1.588.42-2.605.465a4.749 4.749 0 0 0-3.533 1.85c-.85 1.093-1.18 2.474-.91 3.79.475 2.291 2.4 3.836 4.792 3.845a1161 1161 0 0 0 4.226.007l6.387-.003h4.983c.578 0 1.156.002 1.734.004 1.348.004 2.69.008 4.035-.011 2.097-.03 3.82-1.26 4.496-3.21.648-1.868.036-3.969-1.522-5.225" fill="#222" mask="url(#uxfhyiyr5b)"/>
        </g>
    </g>
</svg>
