<?xml version="1.0" encoding="UTF-8"?>
<svg width="48px" height="48px" viewBox="0 0 48 48" version="1.1" xmlns="http://www.w3.org/2000/svg" xmlns:xlink="http://www.w3.org/1999/xlink">
    <title>FB8BE39D-3238-4D19-BD91-D50FC719F7D5</title>
    <defs>
        <polygon id="path-1" points="0 0 34 0 34 30.8125 0 30.8125"></polygon>
    </defs>
    <g id="SHOP" stroke="none" stroke-width="1" fill="none" fill-rule="evenodd">
        <g id="SHOP/store_review_01_v2" transform="translate(-632.000000, -38.000000)">
            <g id="ICON/BASIC/icon_like_black" transform="translate(632.000000, 38.000000)">
                <g id="Group-3" transform="translate(7.000000, 9.000000)">
                    <mask id="mask-2" fill="white">
                        <use xlink:href="#path-1"></use>
                    </mask>
                    <g id="Clip-2"></g>
                    <path d="M22.2671852,0.282641369 C24.2244021,0 25.2043028,0 26.7448284,0.282641369 C30.3240802,1.3614079 32.6596195,3.67678029 33.7413074,7.23884602 C34.0862309,8.7454402 34.0862309,10.2271124 33.7413074,11.6909831 C33.0311826,14.2846512 31.7013884,16.5468171 29.9823376,18.5955636 C26.327143,22.9513753 21.9650044,26.5858335 17.7913312,30.4141294 C17.0108301,31.1301424 16.5018941,30.7660043 15.9019062,30.221874 C12.7715519,27.382744 9.58911117,24.5976118 6.62257067,21.5860057 C4.79576859,19.7316903 3.08208549,17.7812472 1.75209247,15.5244217 C0.258086847,12.9896962 -0.385438927,10.2745829 0.234826879,7.3917405 C1.04355807,3.63326569 3.56537593,1.41876806 7.15476668,0.282641369 C8.90264392,-0.221732422 10.2350226,0.0585411706 11.6326087,0.282641369 C13.2961934,0.865143649 14.9059024,1.54852069 16.221184,2.76455601 C16.7164026,3.22264609 17.1833912,3.22264609 17.6786099,2.76455601 C18.9938915,1.54852069 20.6036005,0.865143649 22.2671852,0.282641369" id="Fill-1" fill="#FF5B2C" mask="url(#mask-2)"></path>
                </g>
            </g>
        </g>
    </g>
</svg>