<?xml version="1.0" encoding="UTF-8"?>
<svg width="48px" height="48px" viewBox="0 0 48 48" version="1.1" xmlns="http://www.w3.org/2000/svg" xmlns:xlink="http://www.w3.org/1999/xlink">
    <title>6FFE95CA-3A88-449E-9DB1-3D8519284EE3</title>
    <defs>
        <polygon id="path-1" points="0 0 41 0 41 41 0 41"></polygon>
    </defs>
    <g id="HOME" stroke="none" stroke-width="1" fill="none" fill-rule="evenodd">
        <g id="HOME/navi" transform="translate(-337.000000, -349.000000)">
            <g id="NAVI/navi_bar_mypoint" transform="translate(-1.000000, 328.000000)">
                <g id="ICON/BASIC/navi_mypoint" transform="translate(338.000000, 21.000000)">
                    <g id="Group-3" transform="translate(4.000000, 5.000000)">
                        <mask id="mask-2" fill="white">
                            <use xlink:href="#path-1"></use>
                        </mask>
                        <g id="Clip-2"></g>
                        <path d="M29.3950809,12.0865327 C28.8817087,11.3398642 27.9906008,11.1086892 27.0513761,11.5099239 C23.6206864,12.9755504 20.1937854,14.449528 16.7657477,15.9216076 C14.6686889,16.8223928 12.5735244,17.7273536 10.475329,18.6247224 C9.88921336,18.8752568 9.46222415,19.2654832 9.30385548,19.8997908 C9.05304194,20.9049653 9.57020279,21.7715867 10.644685,22.1344821 C12.5151781,22.7653733 14.3849135,23.4000606 16.2644995,24.0017228 C16.690731,24.138378 16.9047939,24.3627202 17.0400514,24.7840736 C17.6496571,26.6805433 18.2937402,28.5660048 18.920774,30.4567806 C19.1446876,31.1324644 19.5633417,31.6069614 20.2729697,31.7633556 C21.2156043,31.9709955 21.991535,31.5492626 22.4086735,30.577113 C24.7826881,25.0440979 27.1479886,19.5072869 29.51632,13.9716146 C29.6326339,13.6998227 29.724321,13.423096 29.6996943,13.1615532 C29.7008309,12.6969257 29.6152057,12.4069131 29.3950809,12.0865327 Z M41,21.4984238 C40.4433478,25.3974792 39.6453557,28.9085752 37.3712227,32.2022978 C35.5417504,34.8525956 33.0870257,37.0577957 30.2607864,38.5959704 C18.5677841,44.9598317 3.33072153,38.0895942 0.460677327,25.0393309 C-0.792306692,19.3420809 0.55489908,13.0183818 3.96341234,8.28875346 C7.59797515,3.24569351 13.4054238,0.637628269 19.4471872,0 L21.5543658,0 C26.556797,0.552749182 31.3480558,2.31740612 34.9714608,5.93905188 C38.6188345,9.58429817 40.5454214,14.5010746 41,19.5789143 L41,21.4984238 Z" id="Fill-1" fill="#FF5B2C" mask="url(#mask-2)"></path>
                    </g>
                </g>
            </g>
        </g>
    </g>
</svg>