<?xml version="1.0" encoding="UTF-8"?>
<svg width="48px" height="49px" viewBox="0 0 48 49" version="1.1" xmlns="http://www.w3.org/2000/svg" xmlns:xlink="http://www.w3.org/1999/xlink">
    <title>C96AF593-2727-4B57-B26A-30D43059CE9B</title>
    <defs>
        <polygon id="path-1" points="0 0 44 0 44 34 0 34"></polygon>
    </defs>
    <g id="HOME" stroke="none" stroke-width="1" fill="none" fill-rule="evenodd">
        <g id="HOME/navi" transform="translate(-481.000000, -21.000000)">
            <g id="NAVI/navi_bar_home" transform="translate(0.000000, 0.294688)">
                <g id="icon_mypage_hipass" transform="translate(481.000000, 21.000000)">
                    <rect id="Rectangle" x="0" y="0" width="48" height="48"></rect>
                    <g id="Group-3" transform="translate(2.000000, 8.000000)">
                        <mask id="mask-2" fill="white">
                            <use xlink:href="#path-1"></use>
                        </mask>
                        <g id="Clip-2"></g>
                        <path d="M41.7457479,14.178598 L41.7457479,24.2100795 L41.7457479,24.5236111 C41.7457479,25.0431013 41.3271936,25.4642061 40.809999,25.4642061 C40.5335018,25.4642061 40.2878535,25.3413201 40.1164709,25.1499088 L40.1134241,25.1518229 L39.8734885,24.858198 L38.68257,23.505686 C38.522613,23.3406895 38.1916542,22.9911726 37.8207061,22.9911726 C37.666081,22.9911726 37.5046005,23.0516585 37.3454051,23.2116783 L37.3575923,23.1925372 C35.3550822,24.8068998 32.8170967,25.7777377 30.0502203,25.7777377 C27.7441726,25.7777377 25.5988436,25.1009075 23.7890436,23.9405724 C23.7109694,24.0186682 23.635561,24.0986781 23.5552016,24.1752426 C23.6347993,24.099061 23.7060183,24.0163713 23.7726671,23.9302362 C23.7783798,23.9336816 23.7837117,23.937127 23.7890436,23.9405724 C26.4401416,21.2876123 27.8999403,17.7801923 27.8999403,14.0216407 C27.8999403,10.2630892 26.4401416,6.75605197 23.7890436,4.10309185 C23.7837117,4.10653726 23.7783798,4.10998266 23.7726671,4.11342806 C23.7056374,4.02729299 23.6344185,3.94383768 23.5544399,3.86727318 C23.6351802,3.94422051 23.7105885,4.02461324 23.7890436,4.10309185 C25.5988436,2.94275677 27.7441726,2.26592654 30.0502203,2.26592654 C36.5098199,2.26592654 41.7457479,7.52897066 41.7457479,14.0216407 C41.7457479,14.0767672 41.7381309,14.1295967 41.73775,14.1843403 L41.7457479,14.178598 Z M23.4215232,20.8998131 C22.9972561,21.4874457 22.5227168,22.0360304 22.0001904,22.5352309 C22.0001904,22.5352309 22.0001904,22.5352309 22.0001904,22.5352309 L22.0001904,22.5352309 L22.0001904,22.5352309 C21.65057,22.869435 21.2777177,23.1795212 20.8888697,23.4685523 C21.2777177,23.1795212 21.65057,22.869435 22.0001904,22.5352309 C21.4540513,22.013061 20.9585652,21.4380616 20.5198258,20.8198032 C19.1590482,18.9014795 18.3550735,16.55784 18.3550735,14.0216407 C18.3550735,11.4858243 19.1590482,9.14218479 20.5198258,7.2238611 C20.9585652,6.60560272 21.4540513,6.03060328 22.0001904,5.50843336 C21.4563364,4.98856036 20.8622101,4.5218997 20.2277138,4.11342806 C20.2223819,4.10998266 20.2166691,4.10653726 20.2113372,4.10309185 C17.5602392,6.75566915 16.1008214,10.2627063 16.1008214,14.0216407 C16.1008214,17.7805751 17.5602392,21.2879951 20.2113372,23.9405724 C20.2166691,23.937127 20.2223819,23.9340644 20.2277138,23.9302362 C20.2951243,24.0171369 20.3667241,24.1005922 20.4470835,24.1771568 C20.4470835,24.1775396 20.4474643,24.1779224 20.4478452,24.1779224 C20.4474643,24.1779224 20.4470835,24.1775396 20.4470835,24.1775396 C20.3659624,24.1002094 20.2901732,24.0194339 20.2113372,23.9405724 C20.0864184,24.0205823 19.9607378,24.1002094 19.8327722,24.1756255 C19.6758619,24.2678857 19.5162857,24.3567005 19.3548052,24.4420699 C17.7392388,25.2942329 15.9016368,25.7777377 13.9501606,25.7777377 L13.9497797,25.7777377 L13.9497797,25.7777377 C13.5609317,25.7777377 13.1766539,25.7582138 12.797708,25.7203144 C12.040197,25.6445155 11.3040136,25.4952147 10.5956323,25.2808341 C10.2414417,25.1736438 9.89448719,25.0503749 9.55476885,24.9117932 L9.55781565,24.9163871 L9.56238585,24.9236607 C9.56238585,24.9236607 9.56238585,24.9236607 9.56238585,24.9236607 L9.56238585,24.9236607 C9.42337554,24.8696827 9.27370143,24.8371428 9.11564861,24.8371428 C8.96026175,24.8371428 8.81363444,24.8700655 8.67690923,24.922895 C8.51123941,24.987592 8.36080359,25.0832977 8.23702729,25.2080978 L4.12613065,31.1280654 L3.8865759,31.4216903 L3.8835291,31.4193933 C3.86220149,31.4435112 3.83630368,31.4626523 3.81269097,31.4844732 C3.72966563,31.5606549 3.63521479,31.6222893 3.52933845,31.6647826 C3.42384295,31.7068931 3.31073045,31.7340735 3.1903818,31.7340735 C3.06089275,31.7340735 2.93787815,31.7076587 2.8259082,31.6601887 C2.48999836,31.5173959 2.25425211,31.1831918 2.25425211,30.7934785 L2.25425211,30.4803297 L2.25425211,14.178598 L2.25463296,14.178598 L2.25463296,14.178598 L2.26301166,14.1908483 C2.26224996,14.1338077 2.25425211,14.0790641 2.25425211,14.0216407 C2.25425211,13.6315446 2.27443716,13.2456595 2.31137963,12.8651339 C2.31518813,12.8280001 2.31937748,12.7908663 2.32318598,12.7533497 C2.42601553,11.7894026 2.64348097,10.8595267 2.96415681,9.97980048 C3.09516926,9.61956448 3.24331997,9.26775058 3.40784724,8.92512442 C3.57199366,8.58249825 3.75213579,8.24905983 3.94751192,7.92595762 C4.10251794,7.66984935 4.26933031,7.42216317 4.44223628,7.17945369 C4.59686145,6.96277614 4.75643767,6.74954399 4.92515429,6.54396829 C5.38560213,5.98275047 5.89822645,5.46632288 6.45350599,4.99966222 C6.65802252,4.82815772 6.86901351,4.66430968 7.0845747,4.5065868 C7.78495815,3.99551872 8.54246912,3.55910104 9.34758636,3.21226383 C10.7605405,2.60395884 12.3159325,2.26592654 13.9501606,2.26592654 C16.2558274,2.26592654 18.4015372,2.94275677 20.2113372,4.10309185 C20.2901732,4.02423041 20.3659624,3.94345486 20.4470835,3.86650753 C20.4470835,3.86612471 20.4474643,3.86574189 20.4478452,3.86574189 C20.4474643,3.86574189 20.4470835,3.86612471 20.4470835,3.86650753 C20.3667241,3.94307204 20.2951243,4.02691017 20.2277138,4.11342806 C20.8622101,4.5218997 21.4563364,4.98856036 22.0001904,5.50843336 L22.0001904,5.50843336 L22.0001904,5.50843336 C22.0001904,5.50843336 22.0001904,5.50843336 22.0001904,5.50843336 C22.5467104,6.03060328 23.0421965,6.60560272 23.480555,7.2238611 C23.4919805,7.23955683 23.5041677,7.25486973 23.5152124,7.27056545 C23.6268015,7.42981962 23.7345821,7.59175355 23.8385542,7.75675006 C24.9818663,9.56941473 25.6456882,11.7162835 25.6456882,14.0216407 C25.6456882,16.3273808 24.9818663,18.4742496 23.8385542,20.2869142 C23.7242991,20.4683721 23.6043313,20.6456189 23.480555,20.8198032 C23.4615125,20.8469836 23.4409466,20.8730155 23.4215232,20.8998131 L23.4215232,20.8998131 Z M44,14.0216407 C44,6.29015696 37.7418701,0 30.0502203,0 C27.1405251,0 24.3450849,0.905375279 22.0001904,2.57984102 C19.6556768,0.905375279 16.8602366,0 13.9497797,0 C6.25812985,0 0,6.29015696 0,14.0216407 C0,14.049204 0.000761700323,14.0767672 0.00152340065,14.1039476 C0.000761700323,14.128831 0,14.1537145 0,14.178598 L0,30.4803297 L0,30.7934785 C0,32.5617358 1.43123491,34 3.1903818,34 C4.01149475,34 4.80252054,33.6768978 5.39474254,33.1061094 C5.47814872,33.0303105 5.55698471,32.9476209 5.63048879,32.8572748 L5.87004354,32.5636499 C5.90660515,32.5188596 5.94126252,32.4725381 5.97477733,32.4246853 L9.52277744,27.3155358 C10.9536315,27.7990407 12.4389471,28.0436643 13.9497797,28.0436643 C16.8602366,28.0436643 19.6556768,27.138289 22.0001904,25.4638233 C24.3450849,27.138289 27.1405251,28.0436643 30.0502203,28.0436643 C32.7496862,28.0436643 35.4061161,27.2420339 37.6618916,25.7651046 L38.1577585,26.3282365 L38.3710346,26.5893215 C38.4445387,26.6792848 38.5233747,26.7623573 38.6071617,26.8381561 C39.1990029,27.4077961 39.9892669,27.7301326 40.809999,27.7301326 C42.5687651,27.7301326 44,26.2918684 44,24.5236111 L44,24.2100795 L44,14.178598 C44,14.1533317 44,14.1284482 43.9988574,14.1035648 C44,14.0760015 44,14.049204 44,14.0216407 L44,14.0216407 Z" id="Fill-1" fill="#222222" mask="url(#mask-2)"></path>
                    </g>
                </g>
            </g>
        </g>
    </g>
</svg>