<svg width="48" height="48" viewBox="0 0 48 48" xmlns="http://www.w3.org/2000/svg" xmlns:xlink="http://www.w3.org/1999/xlink">
    <defs>
        <path id="31ttgy4fza" d="M0 0h32v32H0z"/>
    </defs>
    <g fill="none" fill-rule="evenodd">
        <g transform="translate(8 4)">
            <mask id="un3x5l2u6b" fill="#fff">
                <use xlink:href="#31ttgy4fza"/>
            </mask>
            <path d="M23.754 28.142c0-4.28.103-8.382-.03-12.475-.123-3.756-2.388-6.692-5.517-7.58-5.183-1.47-9.776 2.178-9.924 7.978-.094 3.667-.027 7.338-.02 11.007v1.07h15.491zM0 32c.223-1.234.91-2.325 1.625-2.888 2.289-1.806 2.784-3.603 2.793-6.884.004-1.825-.05-3.671-.039-5.51.04-6.345 2.633-10.145 8.535-12.52.626-3.241 1.392-4.25 3.187-4.196 1.82.055 2.671 1.252 2.92 4.2 5.07 1.496 7.756 5.1 8.485 10.26.194 1.382.123 2.804.148 4.207.02 1.135.044 2.28-.021 3.402-.182 3.149.47 5.304 2.895 7.16C31.202 29.747 32 30.717 32 32H0z" fill="#FFF" mask="url(#un3x5l2u6b)"/>
        </g>
        <path d="M20 38h8c-.211 2.388-1.707 3.92-3.835 3.997C22.003 42.075 20.41 40.605 20 38" fill="#FFF"/>
    </g>
</svg>
