<?xml version="1.0" encoding="UTF-8"?>
<svg width="39px" height="37px" viewBox="0 0 39 37" version="1.1" xmlns="http://www.w3.org/2000/svg" xmlns:xlink="http://www.w3.org/1999/xlink">
    <title>7B4BFF96-FFEF-473B-A46B-1FEF8ED696DD</title>
    <defs>
        <polygon id="path-1" points="0 0 24.8965517 0 24.8965517 25.3584208 0 25.3584208"></polygon>
    </defs>
    <g id="AROUND" stroke="none" stroke-width="1" fill="none" fill-rule="evenodd">
        <g id="AROUND/mynear_list" transform="translate(-312.000000, -2788.000000)">
            <g id="btn_지도" transform="translate(294.000000, 2774.000000)">
                <g id="icon_map" transform="translate(18.857143, 14.000000)">
                    <rect id="Rectangle" x="0" y="0" width="38" height="36.0356506"></rect>
                    <g id="Group-3" transform="translate(6.551724, 5.338615)">
                        <mask id="mask-2" fill="white">
                            <use xlink:href="#path-1"></use>
                        </mask>
                        <g id="Clip-2"></g>
                        <path d="M15.3293279,14.3221785 L15.325333,14.3221785 C15.325333,12.0127146 15.3198229,9.7031766 15.3316224,7.39378665 C15.3333227,7.06631596 15.2322805,6.88574455 14.9626279,6.73233285 C13.2958099,5.78388891 11.6385658,4.81620375 9.97712025,3.85688113 C9.61035141,3.64507974 9.60125968,3.65122213 9.6011908,4.0827434 C9.60036428,8.72624086 9.60318823,13.3697383 9.59512734,18.0132358 C9.59457863,18.3258315 9.69252141,18.5006306 9.94853638,18.6464198 C11.625066,19.6013021 13.2936748,20.5722435 14.9656585,21.5363764 C15.3175499,21.7392973 15.328708,21.7315268 15.3289146,21.2874247 C15.32981,18.965676 15.3293279,16.6439272 15.3293279,14.3221785 M23.5862069,3.47390692 L23.5862069,18.8170006 C23.4204894,19.441304 23.0546848,19.8780056 22.5383845,20.2119147 C20.7937358,21.3404861 19.0541839,22.47853 17.3249636,23.634113 C16.5551279,24.1485935 15.8257228,24.1447453 15.0338465,23.6749636 C13.0809833,22.5164944 11.1061484,21.4007999 9.14777499,20.2530613 C8.85580633,20.0819625 8.63519402,20.1083822 8.36113333,20.2925798 C6.98380444,21.2181563 5.59359559,22.1216054 4.2112387,23.0385974 C3.56393476,23.4680465 2.90078916,23.5457514 2.23185791,23.1296971 C1.57814843,22.7231894 1.30918462,22.0880073 1.31035016,21.2807643 C1.31800085,16.5722167 1.31834523,11.8636691 1.31035016,7.15512157 C1.30884024,6.30021954 1.62801522,5.67695215 2.30748461,5.23440418 C4.05867664,4.09362209 5.80318762,2.94099924 7.54707871,1.78734034 C7.84166468,1.59248602 8.14410261,1.42649353 8.47994577,1.33465373 L9.02923805,1.33465373 C9.37706577,1.42360735 9.69217702,1.59344808 10.0045332,1.77520357 C11.9234402,2.89186014 13.8475129,3.99837807 15.7615296,5.12465525 C16.0625212,5.30174844 16.2894701,5.28583743 16.5777883,5.09135314 C17.9614539,4.15763613 19.3557264,3.24182826 20.7519964,2.32986862 C21.613025,1.76750708 22.5954834,1.92543306 23.1962955,2.699818 C23.3750996,2.93034257 23.4761418,3.20430789 23.5862069,3.47390692" id="Fill-1" fill="#FFFFFF" mask="url(#mask-2)"></path>
                    </g>
                </g>
            </g>
        </g>
    </g>
</svg>