<svg width="48" height="48" viewBox="0 0 48 48" xmlns="http://www.w3.org/2000/svg" xmlns:xlink="http://www.w3.org/1999/xlink">
    <defs>
        <path id="7qkr8dxiaa" d="M0 0h36v22H0z"/>
    </defs>
    <g fill="none" fill-rule="evenodd">
        <path d="M0 0h48v48H0z"/>
        <g transform="translate(6 13)">
            <mask id="py0doy6dfb" fill="#fff">
                <use xlink:href="#7qkr8dxiaa"/>
            </mask>
            <path d="M32.961 10.95c-2.404-2.708-5.037-5.04-8.204-6.726-3.964-2.11-8.017-2.46-12.189-.635-2.511 1.099-4.717 2.651-6.716 4.5-.974.902-1.887 1.868-2.84 2.817 2.705 3.058 5.648 5.667 9.32 7.355 3.399 1.562 6.857 1.776 10.377.401 4.13-1.614 7.334-4.442 10.252-7.712zM17.327 22c-.816-.125-1.64-.212-2.446-.383-2.606-.552-4.95-1.704-7.13-3.198a32.385 32.385 0 0 1-7.617-7.316c-.033-.044-.06-.094-.134-.21.643-.763 1.272-1.566 1.96-2.316 2.628-2.868 5.592-5.31 9.156-6.955C13.76.4 16.526-.23 19.456.076c2.45.256 4.725 1.067 6.862 2.264 3.807 2.133 6.945 5.022 9.58 8.471.026.033.042.072.102.175-.629.754-1.245 1.55-1.92 2.295-2.593 2.86-5.517 5.307-9.032 6.986-1.913.914-3.915 1.523-6.047 1.661-.109.007-.216.047-.324.072h-1.35z" fill="#222" mask="url(#py0doy6dfb)"/>
        </g>
        <path d="M23.992 31A6.976 6.976 0 0 1 17 24.017 6.97 6.97 0 0 1 24.007 17 6.973 6.973 0 0 1 31 23.981 6.976 6.976 0 0 1 23.992 31z" fill="#222"/>
    </g>
</svg>
