<svg width="48" height="48" viewBox="0 0 48 48" xmlns="http://www.w3.org/2000/svg">
    <g fill="none" fill-rule="evenodd">
        <path d="M0 0h48v48H0z"/>
        <path fill="#222" d="M16.046 14.643h2.93v2.952h-2.93zM16.046 22.023h2.93v2.952h-2.93zM16.046 29.404h2.93v2.952h-2.93zM22.639 14.643h2.93v2.952h-2.93zM22.639 22.023h2.93v2.952h-2.93zM22.639 29.404h2.93v2.952h-2.93zM29.233 14.643h2.93v2.952h-2.93zM29.233 22.023h2.93v2.952h-2.93zM29.233 29.404h2.93v2.952h-2.93z"/>
        <path stroke="#222" stroke-width="2" d="M10.186 39.736V8h27.837v31.736M6 39.578h36"/>
    </g>
</svg>
