<?xml version="1.0" encoding="UTF-8"?>
<svg width="42px" height="42px" viewBox="0 0 42 42" version="1.1" xmlns="http://www.w3.org/2000/svg" xmlns:xlink="http://www.w3.org/1999/xlink">
    <title>A58F03D6-6E2E-4091-8B5C-FB59E3F9B95B</title>
    <g id="HOME" stroke="none" stroke-width="1" fill="none" fill-rule="evenodd">
        <g id="HOME/search" transform="translate(-38.000000, -332.000000)">
            <g id="icon_mypage_phone-copy-2" transform="translate(38.000000, 332.000000)">
                <rect id="Rectangle" x="0" y="0" width="42" height="42"></rect>
                <g id="Group-5" transform="translate(3.000000, 5.000000)">
                    <g id="Group-2" transform="translate(4.186047, 0.000000)">
                        <rect id="Rectangle" fill="#222222" x="5.86046512" y="6.64250412" width="2.93023256" height="2.95222405"></rect>
                        <rect id="Rectangle-Copy-3" fill="#222222" x="5.86046512" y="14.0230643" width="2.93023256" height="2.95222405"></rect>
                        <rect id="Rectangle-Copy-6" fill="#222222" x="5.86046512" y="21.4036244" width="2.93023256" height="2.95222405"></rect>
                        <rect id="Rectangle-Copy" fill="#222222" x="12.4534884" y="6.64250412" width="2.93023256" height="2.95222405"></rect>
                        <rect id="Rectangle-Copy-4" fill="#222222" x="12.4534884" y="14.0230643" width="2.93023256" height="2.95222405"></rect>
                        <rect id="Rectangle-Copy-7" fill="#222222" x="12.4534884" y="21.4036244" width="2.93023256" height="2.95222405"></rect>
                        <rect id="Rectangle-Copy-2" fill="#222222" x="19.0465116" y="6.64250412" width="2.93023256" height="2.95222405"></rect>
                        <rect id="Rectangle-Copy-5" fill="#222222" x="19.0465116" y="14.0230643" width="2.93023256" height="2.95222405"></rect>
                        <rect id="Rectangle-Copy-8" fill="#222222" x="19.0465116" y="21.4036244" width="2.93023256" height="2.95222405"></rect>
                        <polyline id="Path" stroke="#222222" stroke-width="2" points="0 31.7364086 0 0 27.8372093 0 27.8372093 31.7364086"></polyline>
                    </g>
                    <line x1="0" y1="31.5782537" x2="36" y2="31.5782537" id="Path-2" stroke="#222222" stroke-width="2"></line>
                </g>
            </g>
        </g>
    </g>
</svg>