<svg width="36" height="36" viewBox="0 0 36 36" xmlns="http://www.w3.org/2000/svg" xmlns:xlink="http://www.w3.org/1999/xlink">
    <defs>
        <path id="u4r5e8sw7a" d="M0 0h20.4v8.5H0z"/>
        <path id="9weopv7v9c" d="M0 0h20.4v11.9H0z"/>
    </defs>
    <g fill="none" fill-rule="evenodd">
        <circle fill="#FF5B2C" cx="18" cy="18" r="18"/>
        <path d="M6 6h24v24H6z"/>
        <g transform="translate(7.8 10.2)">
            <mask id="67hnsau64b" fill="#fff">
                <use xlink:href="#u4r5e8sw7a"/>
            </mask>
            <path d="M2.272 0h15.862c.043.017.086.04.13.05 1.091.224 1.79.882 2.114 1.971.054.18.007.265-.139.356-1.265.794-2.527 1.594-3.79 2.393-1.838 1.164-3.677 2.327-5.514 3.494-.443.282-.895.329-1.346.045C6.434 6.323 3.283 4.332.129 2.347c-.118-.074-.151-.144-.115-.278.254-.945.824-1.59 1.73-1.917C1.916.09 2.095.05 2.272 0" fill="#FFF" mask="url(#67hnsau64b)"/>
        </g>
        <g transform="translate(7.8 14.167)">
            <mask id="l73xutwyid" fill="#fff">
                <use xlink:href="#9weopv7v9c"/>
            </mask>
            <path d="M20.4 0V9.183c-.002 1.418-.868 2.454-2.253 2.694-.117.02-.239.022-.359.022-5.056 0-10.112.002-15.168 0-1.45 0-2.609-1.136-2.614-2.588C-.004 6.268.002 3.225.003.18.003.136.008.088.013 0c.085.05.151.086.215.126 2.834 1.755 5.669 3.507 8.5 5.266.983.61 1.956.614 2.937.007L20.147.146c.072-.045.147-.085.253-.146" fill="#FFF" mask="url(#l73xutwyid)"/>
        </g>
    </g>
</svg>
