<?xml version="1.0" encoding="UTF-8"?>
<svg width="48px" height="49px" viewBox="0 0 48 49" version="1.1" xmlns="http://www.w3.org/2000/svg" xmlns:xlink="http://www.w3.org/1999/xlink">
    <title>B82725EF-AB6E-41D0-AFFC-6755A9759F95</title>
    <defs>
        <polygon id="path-1" points="0 0 41 0 41 41 0 41"></polygon>
    </defs>
    <g id="HOME" stroke="none" stroke-width="1" fill="none" fill-rule="evenodd">
        <g id="HOME/navi" transform="translate(-337.000000, -21.000000)">
            <g id="NAVI/navi_bar_home" transform="translate(0.000000, 0.294688)">
                <g id="ICON/BASIC/navi_mypoint-Copy" transform="translate(337.000000, 21.000000)">
                    <g id="Group-6" transform="translate(4.000000, 5.000000)">
                        <g id="Group-3">
                            <mask id="mask-2" fill="white">
                                <use xlink:href="#path-1"></use>
                            </mask>
                            <g id="Clip-2"></g>
                            <path d="M38.9337302,21.3497683 C38.3878217,25.1167631 37.6146235,28.2105184 35.6719167,31.0243782 C34.0292322,33.4039033 31.8170837,35.3929826 29.2743321,36.77714 C26.6493429,38.2056003 23.7875592,38.9297676 20.7683258,38.9297676 C11.9974237,38.9297676 4.30552773,32.9008369 2.47853196,24.5938224 C1.36563904,19.5329323 2.57647315,13.7499452 5.63868501,9.50058623 C8.61989909,5.36426193 13.5603502,2.72761397 19.5579049,2.07010817 L21.439037,2.07010817 C26.4865209,2.64728895 30.5479808,4.44176638 33.5122515,7.40468297 C37.402211,11.2929934 38.6101523,16.2048268 38.9337302,19.6732941 L38.9337302,21.3497683 Z M34.9714512,5.93895844 C31.3480405,2.31729391 26.556774,0.552627832 21.5543348,-0.000124213943 L19.4471529,-0.000124213943 C13.40538,0.637507359 7.59792204,3.24558611 3.96335345,8.28867219 C0.554834769,13.0183251 -0.792373146,19.3420569 0.460612866,25.0393364 C2.58969728,34.7201571 11.5234214,41 20.7683258,41 C23.9859211,41 27.2415359,40.2389826 30.2607693,38.5960462 C33.0870131,37.0578635 35.5417417,34.852652 37.371217,32.2023405 C39.6453535,28.9086008 40.4433469,25.3974866 41,21.498411 L41,19.5788915 C40.5454206,14.5010255 38.6188307,9.58422362 34.9714512,5.93895844 L34.9714512,5.93895844 Z" id="Fill-1" fill="#231F20" mask="url(#mask-2)"></path>
                        </g>
                        <path d="M25.8625828,17.5556273 C24.1248344,21.6127136 22.3870861,25.6698 20.6444352,29.725 C20.4479581,29.1338289 20.2499724,28.543035 20.0516096,27.9522411 C19.6375368,26.7178366 19.2095107,25.4415559 18.8056199,24.1867791 C18.4820548,23.1813732 17.8115434,22.5098451 16.8129415,22.1906806 C15.1419426,21.6568534 13.4441685,21.0845454 11.8025846,20.5311006 L11.275,20.3534097 C12.5647351,19.8026058 13.8529617,19.2491609 15.1411884,18.6953388 C15.9210633,18.3603293 16.7005611,18.0253198 17.480436,17.6910647 L19.5089404,16.8210962 C22.230206,15.6538445 24.9514717,14.4865928 27.675,13.325 L25.8625828,17.5556273 Z M27.9641876,11.275 C27.6783669,11.275 27.3754652,11.3387719 27.067629,11.4701116 C23.6305677,12.9357259 20.1973022,14.4096912 16.762898,15.8817586 C14.6619445,16.7821567 12.5632684,17.68711 10.4607966,18.5848509 C9.87397199,18.8353833 9.44618977,19.2256064 9.28752698,19.8599088 C9.03624762,20.865075 9.55398937,21.7316892 10.6308467,22.0942019 C12.5048137,22.7254675 14.377642,23.3601495 16.2610984,23.9618068 C16.6881215,24.0980812 16.902582,24.3228011 17.0380906,24.7437714 C17.6484489,26.640605 18.2937283,28.5260508 18.9223062,30.4168109 C19.1466357,31.0921095 19.5656876,31.5666026 20.2770132,31.7233752 C20.4341577,31.7579182 20.5871268,31.775 20.7344023,31.775 C21.4704003,31.775 22.0682326,31.347197 22.4163039,30.5371424 C24.7947275,25.0041732 27.1644209,19.4670285 29.5371509,13.9317818 C29.6536807,13.6599921 29.7459177,13.3828882 29.7208657,13.1217272 C29.7220044,12.6571035 29.6362202,12.3667137 29.4156865,12.0467156 C29.0698927,11.5441325 28.5525305,11.275 27.9641876,11.275 L27.9641876,11.275 Z" id="Fill-4" fill="#231F20"></path>
                    </g>
                </g>
            </g>
        </g>
    </g>
</svg>