<?xml version="1.0" encoding="UTF-8"?>
<svg width="48px" height="48px" viewBox="0 0 48 48" version="1.1" xmlns="http://www.w3.org/2000/svg" xmlns:xlink="http://www.w3.org/1999/xlink">
    <title>44784140-4F6F-4AE5-8DA2-8D963467B6E3</title>
    <defs>
        <polygon id="path-1" points="0 0 36 0 36 34.2439024 0 34.2439024"></polygon>
    </defs>
    <g id="MYPAGE" stroke="none" stroke-width="1" fill="none" fill-rule="evenodd">
        <g id="MYPAGE/main_login" transform="translate(-38.000000, -1171.000000)">
            <g id="icon_mypage_rivew" transform="translate(38.000000, 1171.000000)">
                <rect id="Rectangle" x="0" y="0" width="48" height="48"></rect>
                <g id="Group-3" transform="translate(6.000000, 7.000000)">
                    <mask id="mask-2" fill="white">
                        <use xlink:href="#path-1"></use>
                    </mask>
                    <g id="Clip-2"></g>
                    <path d="M33.642442,13.7727426 C33.6205275,13.7968139 33.5909762,13.8274801 33.5517958,13.8660601 C32.8907089,14.5169745 32.2306181,15.1692079 31.5705273,15.8217711 C30.1311443,17.2442862 28.6426197,18.7152737 27.1594076,20.1565842 C26.3963852,20.8978484 26.1098367,21.7475984 26.2841565,22.7539768 C26.6274834,24.7449703 26.9631734,26.8216973 27.2590189,28.6537544 C27.4177329,29.6367209 27.5764469,30.6200171 27.7381492,31.6026539 C27.7494385,31.6699217 27.7557472,31.7203725 27.7587355,31.7569741 L27.7826422,32.0296723 L27.5286335,31.9228352 C27.498418,31.910305 27.4579095,31.8915096 27.4051155,31.8648003 L27.4044514,31.8644706 C26.5790059,31.4420686 25.7519002,31.0213155 24.9254586,30.6005623 L24.7338729,30.5032878 C22.9993084,29.6212229 21.2056412,28.7088216 19.4531467,27.7934526 C18.4576979,27.2737762 17.5565479,27.2698193 16.5803573,27.7796033 C14.5429745,28.8443463 12.455786,29.901835 10.4376614,30.9250302 L8.62706034,31.843367 C8.56496931,31.8746926 8.51649181,31.8977747 8.47897156,31.9139321 L8.20105608,32.0339589 L8.38932141,30.8597409 C8.48162786,30.2873056 8.57625858,29.6990425 8.67254949,29.1107794 L9.11980416,26.3785216 C9.33396842,25.072406 9.54846471,23.7659608 9.75897656,22.458856 C9.88880327,21.6575784 9.61786057,20.92159 8.95378535,20.2700161 C7.4313929,18.776606 5.91265286,17.2789093 4.39490893,15.7808828 L2.59559711,14.0094987 C2.51657216,13.9339873 2.4375472,13.8588057 2.36416689,13.778678 L2.1576395,13.5528034 L2.46078984,13.5046608 C3.80919458,13.2903273 5.15925951,13.0822589 6.50866037,12.8745202 L9.31105782,12.4425557 C10.1614061,12.3116474 11.0120865,12.1810688 11.8611067,12.0432359 C12.6460436,11.915625 13.2533404,11.4368369 13.6670593,10.620391 C14.6376052,8.7032601 15.6137958,6.78843736 16.5903184,4.87427411 L17.7657315,2.56969409 C17.7949509,2.51462687 17.8231741,2.45988938 17.8474128,2.40350318 L17.9765754,2.09881983 L18.1449185,2.38272931 C18.1542156,2.39888676 18.1651728,2.4186714 18.1771261,2.44241295 C18.9026283,3.87547988 19.6331111,5.30722783 20.3632618,6.73897577 L21.3965628,8.76591143 C21.724616,9.40990124 22.0533332,10.053891 22.3783981,10.6995296 C22.7695384,11.4744277 23.4083787,11.9347502 24.2766571,12.0669775 C25.9388374,12.3202208 27.6006856,12.577421 29.2622018,12.834951 C30.6570919,13.051263 32.0516498,13.2672452 33.4468719,13.4805895 C33.4930251,13.4878439 33.5282211,13.4944387 33.5554482,13.5007039 L33.836352,13.5620362 L33.642442,13.7727426 Z M33.8712159,11.2739434 C32.7379716,11.1008279 31.6047272,10.9263934 30.4714828,10.7516291 C28.6147285,10.4654114 26.7586382,10.1795235 24.9008878,9.90154937 C24.5661939,9.85109856 24.4220896,9.75217539 24.284626,9.47749874 C23.4299612,7.76546849 22.5500615,6.04057823 21.6990491,4.37174443 C21.2053092,3.40427587 20.7119013,2.43614782 20.2208177,1.4667008 C19.8429589,0.72147962 19.3223239,0.270389986 18.6283653,0.0877118734 C18.4078923,0.0293472057 18.1867552,0 17.9709308,0 C17.0588235,0 16.269238,0.521325082 15.8047174,1.43009923 L15.6207686,1.79083904 C14.3298063,4.31865566 12.9946831,6.93253543 11.6990723,9.5117921 C11.5732301,9.76239745 11.4533645,9.85076882 11.1854101,9.89033808 C9.11847601,10.1963404 7.05253798,10.5138838 4.98659996,10.8310974 L3.02027321,11.132813 C2.89409892,11.1522679 2.76892074,11.1737013 2.64307849,11.1957941 C2.47672764,11.2244818 2.31070884,11.2531696 2.14369392,11.2752624 C1.15256164,11.4074897 0.438348739,11.9835523 0.131878023,12.8972726 C-0.172600468,13.8067062 0.0525210337,14.6673377 0.782671744,15.3868389 L3.44760562,18.0152274 C4.73657563,19.2870496 6.02587768,20.558542 7.317504,21.8280559 C7.50410913,22.0113935 7.52735177,22.10603 7.49780042,22.281124 C7.08673785,24.7228775 6.69028495,27.1669392 6.29383204,29.6113306 L6.01359229,31.3368804 C5.79776784,32.6673969 6.46283918,33.7403835 7.74948493,34.1364059 L7.84145935,34.1825701 L7.96066085,34.2439024 L8.71571438,34.2439024 L10.4107664,33.4106396 C11.5645971,32.8438099 12.7184278,32.2769802 13.8689381,31.7032258 C15.0812075,31.0988053 16.3831269,30.4432744 17.690359,29.7491635 C17.8527254,29.6624409 17.9473561,29.6522188 18.0044666,29.6522188 C18.0941167,29.6522188 18.1947241,29.6825553 18.3202344,29.7468553 C20.851025,31.0536304 23.3522644,32.3251228 26.1251105,33.7321399 C26.3711504,33.8571129 26.6211747,33.959993 26.8632301,34.0592459 C26.9817675,34.108048 27.0900118,34.1525634 27.1969279,34.1983978 L27.3018518,34.2439024 L28.0134084,34.2439024 L28.1113595,34.2053224 C29.7463127,33.5633111 30.2058527,32.7692878 29.9335819,31.0598955 C29.3877121,27.6295699 28.9341487,24.8402663 28.5071483,22.2817835 C28.4792572,22.1139439 28.4938668,22.0179884 28.6575614,21.8577329 C29.7708835,20.7636427 30.8822134,19.6679038 31.9932112,18.5718351 L32.2146803,18.3535446 C33.2068087,17.374535 34.1996011,16.3951957 35.1933897,15.4175051 C36.1360445,14.4902653 36.0832505,13.5359865 35.8730707,12.8995808 C35.5722446,11.9894877 34.8802782,11.4276041 33.8712159,11.2739434 L33.8712159,11.2739434 Z" id="Fill-1" fill="#222222" mask="url(#mask-2)"></path>
                </g>
            </g>
        </g>
    </g>
</svg>