<svg width="46" height="46" viewBox="0 0 46 46" xmlns="http://www.w3.org/2000/svg" xmlns:xlink="http://www.w3.org/1999/xlink">
    <defs>
        <path id="zvjhjiwkna" d="M0 0h23v15H0z"/>
    </defs>
    <g fill="none" fill-rule="evenodd">
        <circle fill="#FF5B2C" cx="23" cy="23" r="23"/>
        <g transform="translate(12 16)">
            <mask id="mjbloh70qb" fill="#fff">
                <use xlink:href="#zvjhjiwkna"/>
            </mask>
            <path d="M22.301 0c.43.182.77.458.686.953a1.3 1.3 0 0 1-.378.679c-2.125 1.996-4.265 3.976-6.4 5.961-2.436 2.263-4.87 4.528-7.309 6.788-.241.224-.517.413-.777.619h-.447c-.49-.375-.995-.734-1.467-1.13C4.26 12.239 2.32 10.596.379 8.955c-.387-.327-.481-.752-.266-1.136a.895.895 0 0 1 1.029-.431c.166.046.327.148.46.26 1.955 1.642 3.904 3.29 5.855 4.937.12.101.243.2.393.324.106-.096.213-.19.317-.287C12.46 8.627 16.755 4.633 21.053.642c.25-.231.533-.429.801-.642h.447z" fill="#FFF" mask="url(#mjbloh70qb)"/>
        </g>
    </g>
</svg>
