<?xml version="1.0" encoding="UTF-8"?>
<svg width="48px" height="48px" viewBox="0 0 48 48" version="1.1" xmlns="http://www.w3.org/2000/svg" xmlns:xlink="http://www.w3.org/1999/xlink">
    <title>4468F76E-0148-42EB-BF62-089CD92C07DF</title>
    <g id="HOME" stroke="none" stroke-width="1" fill="none" fill-rule="evenodd">
        <g id="HOME/navi" transform="translate(-481.000000, -513.000000)">
            <g id="NAVI/navi_bar_event" transform="translate(0.000000, 491.000000)">
                <g id="ICON/BASIC/navi_hipass" transform="translate(481.000000, 22.000000)">
                    <rect id="Rectangle" x="0" y="0" width="48" height="48"></rect>
                    <g id="Group-7" transform="translate(2.000000, 7.000000)">
                        <path d="M20.3929008,14.0217368 C20.3929008,11.4052519 21.4274679,8.96478865 23.3061165,7.15053349 C23.7488877,6.72299548 23.9996089,6.12936928 24,5.50872395 C24,4.88768129 23.7492788,4.29405509 23.3065076,3.86651708 C20.7253704,1.37281025 17.3502176,0 13.803354,0 C6.19214785,0 0,6.2898947 0,14.0217368 C0,14.0491533 0.000391140664,14.0765698 0.00117342199,14.1039863 C0.000391140664,14.1286213 0,14.1536538 0,14.1786862 L0,30.4803609 L0,30.7938623 C0,32.5616286 1.4159292,34 3.15650516,34 C3.96929546,34 4.75157679,33.6769625 5.33789664,33.106382 C5.42042732,33.03049 5.49865545,32.9478433 5.57140762,32.857647 L5.80804772,32.5640127 C5.8444238,32.5191132 5.87884418,32.4726244 5.9117,32.4249436 L9.42257859,27.3155465 C10.8385078,27.7991095 12.3080233,28.043871 13.803354,28.043871 C17.3502176,28.043871 20.7253704,26.6706634 23.3065076,24.1773539 C23.7492788,23.7494186 24,23.1557924 24,22.5351471 C23.9996089,21.9145017 23.7488877,21.3208756 23.3061165,20.8929402 C21.4274679,19.078685 20.3929008,16.6382218 20.3929008,14.0217368" id="Fill-1" fill="#FF5B2C"></path>
                        <path d="M44,13.9998016 C44,6.28005497 37.8073601,0 30.1960299,0 C26.6494997,0 23.2750742,1.37066266 20.6935037,3.86007169 C20.2507253,4.28733759 20,4.88003514 20,5.49970955 C20,6.11978067 20.2507253,6.7120815 20.6935037,7.1393474 C22.5725741,8.95116111 23.607158,11.3874099 23.607158,13.9998016 C23.607158,16.6121934 22.5725741,19.0484422 20.6935037,20.8602559 C20.2507253,21.2875218 20,21.8802193 20,22.4998937 C20,23.1199649 20.2507253,23.7122657 20.6935037,24.1395316 C23.2750742,26.6289406 26.6494997,28 30.1960299,28 C32.8675641,28 35.4960722,27.1994219 37.7279572,25.724819 L38.2188468,26.2873659 L38.429675,26.54801 C38.5028195,26.6376684 38.5806578,26.7205826 38.663581,26.7963559 C39.2495192,27.3648536 40.031031,27.686989 40.8434434,27.686989 C42.5840477,27.686989 44,26.2508678 44,24.4854702 L44,24.1724592 L44,14.1565055 C44,14.1311155 43.9996089,14.1065189 43.9988266,14.0815257 C43.9996089,14.0541521 44,14.0271752 44,13.9998016" id="Fill-3" fill="#FF5B2C"></path>
                        <path d="M23.5794975,3.63658815 C23.1372864,3.21206089 22.5684422,3 22,3 C21.4311558,3 20.8627136,3.21206089 20.4201005,3.63658815 C17.5698492,6.36945704 16,10.0499097 16,14 C16,17.9496848 17.5698492,21.6301375 20.4201005,24.3634118 C20.8627136,24.7875336 21.4311558,25 22,25 C22.5684422,25 23.1368844,24.7875336 23.5794975,24.3634118 C26.4297487,21.629732 28,17.9492794 28,14 C28,10.0503152 26.4297487,6.36986251 23.5794975,3.63658815" id="Fill-5" fill="#FFFFFF"></path>
                    </g>
                </g>
            </g>
        </g>
    </g>
</svg>