<svg width="32" height="32" viewBox="0 0 32 32" xmlns="http://www.w3.org/2000/svg" xmlns:xlink="http://www.w3.org/1999/xlink">
    <defs>
        <path id="b04vp5yawa" d="M0 0h32v32H0z"/>
    </defs>
    <g fill="none" fill-rule="evenodd">
        <mask id="pgjbfz2ghb" fill="#fff">
            <use xlink:href="#b04vp5yawa"/>
        </mask>
        <path d="M12.469 24.46c5.18-5.179 8.744-8.676 14.02-13.95l-2.456-2.555c-4.483 4.565-7.2 7.296-11.76 11.94-2.066-2.175-2.873-3.093-4.955-5.284l-2.183 2.354c2.918 2.97 4.604 4.715 7.334 7.494zm19.525 3.362c-.009 2.812-1.363 4.168-4.177 4.171-7.891.01-15.783.01-23.675 0C1.406 31.99.014 30.625.01 27.928a7834.9 7834.9 0 0 1 0-23.823C.013 1.386 1.389.012 4.11.009c7.941-.011 15.882-.012 23.823 0 2.694.004 4.052 1.398 4.06 4.138.013 3.946.004 7.892.004 11.837 0 3.946.008 7.892-.003 11.838z" fill="#FF5B2C" mask="url(#pgjbfz2ghb)"/>
    </g>
</svg>
