<?xml version="1.0" encoding="UTF-8"?>
<svg width="87px" height="120px" viewBox="0 0 87 120" version="1.1" xmlns="http://www.w3.org/2000/svg" xmlns:xlink="http://www.w3.org/1999/xlink">
    <title>EA6AC83A-F2F2-457D-ACFA-14BCC09579BB</title>
    <defs>
        <polygon id="path-1" points="0 0 87 0 87 120 0 120"></polygon>
    </defs>
    <g id="SHOP" stroke="none" stroke-width="1" fill="none" fill-rule="evenodd">
        <g id="SHOP/buttonarea_map" transform="translate(-317.000000, -714.000000)">
            <g id="pin" transform="translate(317.000000, 714.000000)">
                <g id="Group-6">
                    <path d="M42.7677129,118.356164 C42.7076758,118.356164 42.6464134,118.354921 42.5851511,118.352124 C40.391959,118.248635 38.3764277,116.525372 37.5156917,114.876073 C34.4268441,108.955444 31.382718,102.952147 28.4393685,97.1461944 C27.6166152,95.5245553 26.7944744,93.903227 25.9711085,92.2822095 L20.3812255,83.5117465 L20.364072,83.4828441 C18.2398001,79.8681864 16.5710137,77.2315467 14.8042076,74.4401396 C13.0275995,71.6338152 11.1906479,68.7314604 8.73709087,64.5946958 C8.15540488,63.6141916 7.61935932,62.6535771 7.09801674,61.6575339 C6.94761767,61.3700644 6.78557876,61.0648805 6.6171073,60.7469547 C5.69725314,59.0115709 4.55225984,56.8519753 3.90012214,55.0311276 C1.07899099,47.1591234 0.89979862,38.8958499 3.36744602,30.4709719 C5.97201477,21.57713 11.5058427,14.0665605 19.3710093,8.75101536 C26.2507711,4.10146723 34.244895,1.64383562 42.4883566,1.64383562 C46.6428628,1.64383562 50.7814407,2.27160697 54.7883046,3.51005689 C66.7494719,7.20644921 76.0144832,15.8184155 80.8771821,27.7591239 C81.7131068,29.8108796 82.1688987,30.9862416 82.5974288,33.2337874 C82.636943,33.4404547 82.7306744,33.8062403 82.8130723,34.1291385 C83.0559775,35.0801189 83.356163,36.253927 83.4076234,37.3326371 C83.5424006,38.2000182 83.9660297,41.4408101 83.5129946,45.4650731 L83.2927565,47.4220415 L83.2036198,47.4068134 C83.0593469,48.3223651 82.8749473,49.3224484 82.509211,50.3321658 C82.2852972,50.9509246 82.0647527,51.5718588 81.8439019,52.1931038 L81.7976489,52.323009 C80.7479185,55.2828577 79.6598992,58.3502355 78.1850082,61.2886406 C74.3922562,68.8448944 70.5143495,74.8746071 66.7644811,80.7057328 C63.2051387,86.2400656 59.5244968,91.9627299 55.9865962,98.9204254 L55.2235736,100.421793 C52.9574793,104.879281 50.6910787,109.337079 48.4280476,113.79581 L48.3857766,113.904582 C48.2160799,114.325064 47.8935336,115.125939 47.1614485,115.817731 C47.0563836,115.916558 46.9510124,116.027195 46.8428843,116.139696 L46.8147036,116.16891 C45.9775536,117.039398 44.7118735,118.356164 42.7677129,118.356164" id="Fill-1" fill="#F05C33"></path>
                    <g id="Group-5">
                        <mask id="mask-2" fill="white">
                            <use xlink:href="#path-1"></use>
                        </mask>
                        <g id="Clip-4"></g>
                        <path d="M43.307759,0 C34.57512,0 26.1075679,2.5563689 18.8203206,7.39290986 C10.4733473,12.9329477 4.59823913,20.7677106 1.82989935,30.0500297 C-0.789581564,38.8341418 -0.595971811,47.4587904 2.40575629,55.6843161 C3.11400128,57.6257445 4.31139835,59.8446083 5.27385326,61.6271926 C5.44260141,61.9399267 5.60451261,62.2399656 5.75554686,62.5229745 C6.29939449,63.5432307 6.85940215,64.5288075 7.46757918,65.5357494 C9.97083208,69.68025 11.8419787,72.5831035 13.651282,75.3905886 C15.435413,78.1584401 17.1204083,80.7727112 19.2600602,84.3480978 L19.2948665,84.4060001 L19.3315373,84.4626638 L24.9347217,93.0962919 C25.7557762,94.6838044 26.5758984,96.2719362 27.3960206,97.860068 C30.3850072,103.649055 33.4756155,109.63559 36.6150147,115.544097 C37.7011561,117.588015 40.2603477,119.852396 43.313042,119.99359 C43.4137316,119.998235 43.5032333,120.000093 43.5911813,120.000093 C46.3495764,120.000093 48.0951719,118.216889 49.0327652,117.25918 L49.0604237,117.231003 C49.157384,117.132228 49.2574519,117.030048 49.3164982,116.975242 C50.3560241,116.010721 50.8016684,114.93411 51.0170321,114.409584 L51.0269767,114.385742 L51.0325706,114.372118 L51.0375429,114.360042 C53.3248106,109.93501 55.6139429,105.513074 57.9030753,101.091757 L58.254867,100.411483 L58.6598004,99.6293379 C62.2053761,92.7813904 65.7478441,87.3720196 69.4985281,81.6449606 C73.330323,75.7943562 77.2923307,69.744345 81.1856581,62.1269478 C82.7354684,59.0949754 83.859213,55.9831165 84.9462867,52.9737476 L84.9692837,52.9105815 L84.9969422,52.8337914 C85.2172782,52.2244244 85.4376142,51.6156766 85.6613686,51.0090964 C85.845966,50.5081026 85.989231,50.0191846 86.105459,49.5457486 L86.3391581,49.5822858 L86.7820055,45.7294639 C87.2515791,41.6360534 86.8404303,38.2851541 86.6797621,37.2243354 C86.6061096,35.9929062 86.2857057,34.7611674 86.0246588,33.7579412 C85.9550463,33.4913432 85.8602615,33.12659 85.8310491,32.9764157 C85.3636509,30.5692921 84.8487049,29.2650981 83.9788595,27.1679219 C78.8281563,14.7477343 69.0090652,5.78805763 56.3302679,1.94018986 C52.0885673,0.652716284 47.7073308,0 43.307759,0 M43.307759,3.71565247 C47.2974251,3.71565247 51.317236,4.30272556 55.243505,5.49452109 C66.8346071,9.01231507 75.8155513,17.2133793 80.5321086,28.5869916 C81.3553385,30.5714596 81.7686627,31.6171061 82.1701777,33.6848667 C82.2208332,33.9449624 82.3149965,34.3069289 82.4147537,34.69057 C82.6484528,35.5885194 82.9377797,36.7010476 82.9638844,37.6020934 C83.0474816,38.0975137 83.5378767,41.287711 83.0770047,45.3074277 L83.0760724,45.3074277 C83.0711001,45.3616143 83.0633308,45.4154912 83.0527647,45.4684393 C82.9763152,45.8561057 82.9119858,46.2731877 82.8498318,46.6769552 C82.6947575,47.680491 82.535954,48.7103461 82.1608546,49.7271963 C81.9265339,50.3628825 81.6956318,51.0013554 81.4647296,51.640138 L81.4370711,51.7156896 C80.3888436,54.6182335 79.3045669,57.6195518 77.862283,60.4406609 C70.3895059,75.0626823 62.7414545,83.6408853 55.3454376,97.9263305 L54.940815,98.7081657 C52.5183623,103.38772 50.0955988,108.067275 47.6762538,112.747759 C47.6414476,112.81464 47.6131675,112.886786 47.5836443,112.958931 L47.5690381,112.993921 C47.4307455,113.331426 47.2209757,113.842328 46.7781283,114.253217 C46.6432541,114.378001 46.5049614,114.520125 46.3632503,114.664726 C45.6525191,115.390516 44.7773906,116.28444 43.5911813,116.28444 C43.5566858,116.28444 43.521258,116.28444 43.486141,116.281963 C42.0357771,116.215082 40.5297853,114.970338 39.9107313,113.805481 C36.7909106,107.933511 33.700613,101.948215 30.712248,96.160157 C29.863535,94.5169097 29.0151327,92.8742817 28.1654873,91.2319633 L22.4631673,82.4450645 C18.1238849,75.1948976 15.6175242,71.8232526 10.662917,63.6200209 C10.1001124,62.6880114 9.56869562,61.7547633 9.04908806,60.7800238 C8.07513466,58.9531614 6.6418631,56.4197057 5.91031036,54.4148015 C3.0919366,46.6908889 3.0826135,38.8954501 5.40468746,31.1083714 C7.92161425,22.6691957 13.2752502,15.5376201 20.8875631,10.4852616 C27.6191535,6.01749917 35.4061192,3.71565247 43.307759,3.71565247" id="Fill-3" fill="#CB3B27" mask="url(#mask-2)"></path>
                    </g>
                </g>
                <g id="ICON/icon_store_over" transform="translate(21.000000, 20.000000)">
                    <rect id="Rectangle" x="0" y="0" width="43" height="43"></rect>
                    <g id="Group-5" transform="translate(3.739130, 7.400362)">
                        <g id="Group-2" transform="translate(4.239130, 0.000000)">
                            <polyline id="Path" stroke="#FFFFFF" stroke-width="2.3" fill="#FFFFFF" points="0 32.4478906 0 0 28.1902174 0 28.1902174 32.4478906"></polyline>
                            <rect id="Rectangle" fill="#FF5B2C" x="5.93478261" y="6.79141895" width="2.9673913" height="3.01840842"></rect>
                            <rect id="Rectangle-Copy-3" fill="#FF5B2C" x="5.93478261" y="14.33744" width="2.9673913" height="3.01840842"></rect>
                            <rect id="Rectangle-Copy-6" fill="#FF5B2C" x="5.93478261" y="21.8834611" width="2.9673913" height="3.01840842"></rect>
                            <rect id="Rectangle-Copy" fill="#FF5B2C" x="12.611413" y="6.79141895" width="2.9673913" height="3.01840842"></rect>
                            <rect id="Rectangle-Copy-4" fill="#FF5B2C" x="12.611413" y="14.33744" width="2.9673913" height="3.01840842"></rect>
                            <rect id="Rectangle-Copy-7" fill="#FF5B2C" x="12.611413" y="21.8834611" width="2.9673913" height="3.01840842"></rect>
                            <rect id="Rectangle-Copy-2" fill="#FF5B2C" x="19.2880435" y="6.79141895" width="2.9673913" height="3.01840842"></rect>
                            <rect id="Rectangle-Copy-5" fill="#FF5B2C" x="19.2880435" y="14.33744" width="2.9673913" height="3.01840842"></rect>
                            <rect id="Rectangle-Copy-8" fill="#FF5B2C" x="19.2880435" y="21.8834611" width="2.9673913" height="3.01840842"></rect>
                        </g>
                        <line x1="0" y1="32.2861901" x2="36.4565217" y2="32.2861901" id="Path-2" stroke="#FFFFFF" stroke-width="1.5"></line>
                    </g>
                </g>
            </g>
        </g>
    </g>
</svg>