<svg width="36" height="39" viewBox="0 0 36 39" xmlns="http://www.w3.org/2000/svg" xmlns:xlink="http://www.w3.org/1999/xlink">
    <defs>
        <path id="leve0dpn3a" d="M0 0h36v39H0z"/>
    </defs>
    <g fill="none" fill-rule="evenodd">
        <mask id="y21hc36e3b" fill="#fff">
            <use xlink:href="#leve0dpn3a"/>
        </mask>
        <path d="M35.591 15.443a2.605 2.605 0 0 0-.469-.453c-.043-.041-.084-.084-.131-.124a85.203 85.203 0 0 1-2.203-1.986l-5.124-4.734a3.651 3.651 0 0 0-.404-.435c-2.52-2.33-5.046-4.654-7.573-6.976a3.373 3.373 0 0 0-.525-.394 2.367 2.367 0 0 0-.733-.295l-.071-.013a1.973 1.973 0 0 0-.211-.029C18.097 0 18.049 0 18 0c-.049 0-.098 0-.147.004-.07.005-.14.016-.21.029l-.072.013a2.367 2.367 0 0 0-.733.295 3.373 3.373 0 0 0-.525.394A3053.826 3053.826 0 0 0 8.74 7.71c-.15.139-.286.284-.404.435L3.212 12.88c-.726.67-1.453 1.34-2.203 1.986-.047.04-.088.083-.131.124a2.605 2.605 0 0 0-.47.453c-.144.18-.408.631-.408.938v20.616c0 .46.077.583.088.607.272.553.655.886 1.104 1.089l.023.01a2.74 2.74 0 0 0 .439.15c.507.13 1.072.147 1.648.147 4.755-.002 9.51-.002 14.266-.002v-8.172c0-.537.473-.972 1.057-.972s1.058.435 1.058.972v8.172c4.338 0 8.677 0 13.015.002.576 0 1.14-.017 1.648-.147a2.74 2.74 0 0 0 .439-.15l.023-.01c.45-.203.832-.536 1.104-1.089.011-.024.088-.32.088-.636V16.735c0-.517-.264-1.113-.409-1.292" fill="#222" mask="url(#y21hc36e3b)"/>
    </g>
</svg>
