<?xml version="1.0" encoding="UTF-8"?>
<svg width="48px" height="48px" viewBox="0 0 48 48" version="1.1" xmlns="http://www.w3.org/2000/svg" xmlns:xlink="http://www.w3.org/1999/xlink">
    <title>AE772BFA-516E-4AD9-B2C5-355FDDD4695B</title>
    <defs>
        <polygon id="path-1" points="0 0 36 0 36 39 0 39"></polygon>
    </defs>
    <g id="HOME" stroke="none" stroke-width="1" fill="none" fill-rule="evenodd">
        <g id="HOME/navi" transform="translate(-49.000000, -186.000000)">
            <g id="NAVI/navi_bar_area" transform="translate(0.000000, 164.000000)">
                <g id="ICON/BASIC/navi_home_off" transform="translate(49.000000, 22.000000)">
                    <g id="Group-3" transform="translate(6.000000, 6.000000)">
                        <mask id="mask-2" fill="white">
                            <use xlink:href="#path-1"></use>
                        </mask>
                        <g id="Clip-2"></g>
                        <path d="M33.8825603,36.9412211 C33.8802098,36.9423891 33.878251,36.9435571 33.8762922,36.9443357 C33.8680654,36.9478397 33.8602303,36.9513437 33.8523952,36.9548477 C33.8465188,36.957573 33.8406425,36.9595196 33.8343744,36.9614663 C33.8249723,36.9645809 33.8140031,36.9680849 33.8049927,36.9711995 C33.7967658,36.9731462 33.7881472,36.9754822 33.7799203,36.9774288 C33.5182275,37.0443936 33.0912138,37.0533482 32.6990663,37.0533482 C28.4120835,37.0517909 24.1247089,37.0514016 19.8373343,37.0510123 L19.058524,37.0510123 L19.058524,29.6992872 C19.058524,29.161622 18.5848913,28.7259613 18,28.7259613 C17.4151087,28.7259613 16.9410843,29.161622 16.9410843,29.6992872 L16.9410843,37.0510123 L16.1626657,37.0510123 C11.8752911,37.0514016 7.58791651,37.0517909 3.29231506,37.0533482 C2.90878621,37.0533482 2.48138072,37.0443936 2.22007966,36.9774288 C2.21185279,36.9754822 2.20166714,36.9727569 2.19304851,36.9708102 C2.18403813,36.9676956 2.17463599,36.9645809 2.16523386,36.9614663 C2.15896576,36.9595196 2.15269767,36.9571836 2.14682134,36.9548477 C2.13898622,36.9513437 2.13154286,36.9478397 2.12370775,36.9443357 C2.12174897,36.9435571 2.11979019,36.9423891 2.11743966,36.9412211 L2.11743966,16.5959849 C2.11939844,16.5928703 2.12096546,16.590145 2.12292424,16.5874196 C2.15269767,16.5527692 2.18247111,16.5239588 2.21185279,16.5021563 C2.27962653,16.4515433 2.34387446,16.3974264 2.40420484,16.3398055 L2.46727752,16.2782913 L2.47667965,16.2689474 C3.26019109,15.5938486 4.03116634,14.8821527 4.71203778,14.2537735 C6.18503928,12.8938426 7.65725727,11.5335223 9.12947526,10.1732021 L9.83737785,9.5191271 C9.91847128,9.44398634 9.99290487,9.36339496 10.0595033,9.27696362 C10.104947,9.2189534 10.1664527,9.1535459 10.2424533,9.08346644 C12.811979,6.70621531 15.3901234,4.3355828 17.8103902,2.1113385 C17.8644525,2.06150421 17.9298757,2.01244859 18,1.96884359 C18.0701243,2.01244859 18.1355475,2.06150421 18.1900015,2.1113385 C20.6114436,4.33675079 23.1899798,6.70816196 25.7575467,9.08307711 C25.8335473,9.1535459 25.895053,9.21856407 25.9404967,9.27735295 C26.0070951,9.36339496 26.0815287,9.44437567 26.1626222,9.5191271 L26.7486887,10.0606856 C28.2616493,11.4587709 29.7746099,12.8564669 31.2879622,14.2537735 C31.9688337,14.882542 32.7398089,15.5942379 33.5233203,16.2689474 L33.5327225,16.2782913 L33.5957952,16.3398055 C33.6561255,16.3974264 33.7203735,16.4515433 33.7881472,16.5021563 C33.8002916,16.5111109 33.8120443,16.5212335 33.8241887,16.5321347 C33.8527869,16.6049395 33.8794263,16.6968215 33.8825603,16.7353652 L33.8825603,36.9412211 Z M35.591007,15.4435671 C35.4476244,15.2664218 35.2905304,15.1161402 35.1220754,14.9903865 C35.0785905,14.9487282 35.0382397,14.9062912 34.9908373,14.8654115 C34.2406251,14.2199018 33.5139182,13.5498642 32.7883866,12.880216 C31.0795482,11.3026494 29.371885,9.7243042 27.6638301,8.14634828 C27.5459116,7.99450944 27.4095806,7.85006788 27.2595382,7.71107695 C24.7405489,5.38093479 22.2141163,3.05741125 19.6869001,0.734666374 C19.5278473,0.588667492 19.3488149,0.455516512 19.1615557,0.341053388 C18.9210177,0.194275846 18.6749951,0.1000579 18.4289725,0.0463303119 C18.4050754,0.0408796869 18.3811783,0.0373757138 18.3572812,0.0327037496 C18.2871569,0.0202451783 18.2170327,0.00934392844 18.1465166,0.00428263387 C18.0979389,0 18.0489695,0 18,0 C17.9510305,0 17.9020611,0 17.8534834,0.00428263387 C17.7829673,0.00934392844 17.7128431,0.0202451783 17.6427188,0.0327037496 C17.6188217,0.0373757138 17.5949246,0.0408796869 17.5710275,0.0463303119 C17.3250049,0.1000579 17.0789823,0.194275846 16.8384443,0.341053388 C16.6511851,0.455516512 16.4721527,0.588667492 16.3130999,0.734666374 C13.7858837,3.05741125 11.2594511,5.38093479 8.74046184,7.71107695 C8.5904194,7.85006788 8.45369665,7.99450944 8.33616993,8.14634828 C6.628115,9.7243042 4.92045182,11.3026494 3.21161338,12.880216 C2.48608179,13.5498642 1.75937493,14.2199018 1.00916273,14.8654115 C0.961760289,14.9062912 0.92140945,14.9487282 0.877924565,14.9903865 C0.709469606,15.1161402 0.552375563,15.2664218 0.40899297,15.4435671 C0.26443511,15.6222697 0,16.0742822 0,16.3806852 L0,36.996506 C0,37.4563052 0.0767841208,37.5805015 0.0881450367,37.6038614 C0.35963175,38.1567105 0.742377087,38.4899772 1.19250441,38.692429 C1.19994777,38.6963223 1.20778288,38.6998263 1.21522624,38.7033303 C1.29240212,38.737202 1.37075326,38.7675698 1.45145494,38.7940442 C1.5172699,38.8170147 1.58465188,38.8364813 1.65360089,38.8532225 C2.15857401,38.9820908 2.72074347,39 3.29270681,39 L3.30132544,39 C8.20101421,38.9980533 13.1003112,38.9980533 18,38.997664 C22.899297,38.9980533 27.7989858,38.9980533 32.6982828,39 L32.7072932,39 C33.2792565,39 33.841426,38.9820908 34.3460074,38.8532225 C34.4153481,38.8364813 34.4827301,38.8170147 34.5485451,38.7940442 C34.6292467,38.7675698 34.7075979,38.737202 34.7847738,38.7033303 C34.7922171,38.6998263 34.8000522,38.6963223 34.8074956,38.692429 C35.2576229,38.4899772 35.6403683,38.1567105 35.911855,37.6038614 C35.9232159,37.5805015 36,37.2838318 36,36.9676956 L36,16.7353652 C36,16.2179451 35.7355649,15.6222697 35.591007,15.4435671 L35.591007,15.4435671 Z" id="Fill-1" fill="#231F20" mask="url(#mask-2)"></path>
                    </g>
                </g>
            </g>
        </g>
    </g>
</svg>