<svg width="48" height="48" viewBox="0 0 48 48" xmlns="http://www.w3.org/2000/svg" xmlns:xlink="http://www.w3.org/1999/xlink">
    <defs>
        <path id="czeu58rqya" d="M0 0h44v34H0z"/>
    </defs>
    <g fill="none" fill-rule="evenodd">
        <path d="M0 0h48v48H0z"/>
        <g transform="translate(2 8)">
            <mask id="jlnrpfxbtb" fill="#fff">
                <use xlink:href="#czeu58rqya"/>
            </mask>
            <path d="M41.746 14.179v10.345c0 .52-.419.94-.936.94a.928.928 0 0 1-.694-.314l-.003.002-.24-.294-1.19-1.352c-.16-.165-.491-.515-.862-.515-.155 0-.316.06-.476.22l.013-.018a11.6 11.6 0 0 1-7.308 2.585c-2.306 0-4.451-.677-6.261-1.837-.078.078-.153.158-.234.234.08-.076.151-.159.218-.245a.615.615 0 0 1 .016.01 13.917 13.917 0 0 0 4.11-9.918c0-3.759-1.459-7.266-4.11-9.919a.615.615 0 0 1-.016.01 2.252 2.252 0 0 0-.219-.246c.081.077.157.158.235.236a11.558 11.558 0 0 1 6.261-1.837c6.46 0 11.696 5.263 11.696 11.756 0 .055-.008.108-.008.162l.008-.005zm-18.324 6.72A11.865 11.865 0 0 1 22 22.536a11.904 11.904 0 0 1-1.48-1.715 11.707 11.707 0 0 1-2.165-6.798c0-2.536.804-4.88 2.165-6.798.439-.618.934-1.193 1.48-1.716a11.837 11.837 0 0 0-1.772-1.395l-.017-.01a13.915 13.915 0 0 0-4.11 9.919c0 3.759 1.46 7.266 4.11 9.919l.017-.01a2.201 2.201 0 0 0 .22.247c-.082-.078-.158-.159-.237-.237-.125.08-.25.16-.378.235a11.547 11.547 0 0 1-5.883 1.602 11.573 11.573 0 0 1-4.395-.866l.003.004.004.008a1.23 1.23 0 0 0-.446-.087c-.156 0-.302.033-.44.086-.165.065-.315.16-.439.285l-4.11 5.92-.24.294-.003-.003c-.022.025-.048.044-.071.065a.932.932 0 0 1-.623.25.94.94 0 0 1-.936-.94V14.178l.009.012c0-.057-.009-.112-.009-.17 0-.39.02-.775.057-1.156l.012-.112a11.725 11.725 0 0 1 1.625-4.827c.155-.256.321-.504.494-.747.155-.216.314-.43.483-.635a11.775 11.775 0 0 1 4.423-3.332 11.61 11.61 0 0 1 4.602-.946c2.306 0 4.452.677 6.261 1.837.08-.079.155-.16.236-.236v-.001c-.08.077-.152.16-.22.247.635.409 1.23.876 1.773 1.395a11.857 11.857 0 0 1 1.48 1.716c.012.016.024.03.035.047a11.702 11.702 0 0 1 2.13 6.751 11.703 11.703 0 0 1-2.164 6.798l-.06.08zM44 14.023C44 6.29 37.742 0 30.05 0 27.14 0 24.345.905 22 2.58A13.81 13.81 0 0 0 13.95 0C6.258 0 0 6.29 0 14.022c0 .027 0 .055.002.082L0 14.179V30.793A3.202 3.202 0 0 0 3.19 34c.821 0 1.613-.323 2.205-.894.083-.076.162-.158.235-.249l.24-.293c.037-.045.071-.091.105-.14l3.548-5.108c1.43.483 2.916.728 4.427.728 2.91 0 5.706-.906 8.05-2.58a13.812 13.812 0 0 0 8.05 2.58c2.7 0 5.356-.802 7.612-2.279l.496.563.213.261c.074.09.152.173.236.25.592.569 1.382.891 2.203.891A3.202 3.202 0 0 0 44 24.524V14.179l-.001-.075.001-.082z" fill="#222" mask="url(#jlnrpfxbtb)"/>
        </g>
    </g>
</svg>
