<?xml version="1.0" encoding="UTF-8"?>
<svg width="40px" height="40px" viewBox="0 0 40 40" version="1.1" xmlns="http://www.w3.org/2000/svg" xmlns:xlink="http://www.w3.org/1999/xlink">
    <title>298421D5-7A06-422D-BAB1-E8C3E766320A</title>
    <defs>
        <polygon id="path-1" points="0 0 34 0 34 14.1666667 0 14.1666667"></polygon>
        <polygon id="path-3" points="0 0 34 0 34 19.8333333 0 19.8333333"></polygon>
    </defs>
    <g id="LOGIN/MEMBER" stroke="none" stroke-width="1" fill="none" fill-rule="evenodd">
        <g id="LOGIN/login" transform="translate(-256.000000, -976.000000)">
            <g id="btn_이메일로그인" transform="translate(40.000000, 943.000000)">
                <g id="icon_mail" transform="translate(216.000000, 33.000000)">
                    <rect id="Rectangle-Copy-4" x="0" y="0" width="40" height="40"></rect>
                    <g id="Group-3" transform="translate(3.000000, 7.000000)">
                        <mask id="mask-2" fill="white">
                            <use xlink:href="#path-1"></use>
                        </mask>
                        <g id="Clip-2"></g>
                        <path d="M3.78613644,-8.29614542e-06 L30.2229529,-8.29614542e-06 C30.2956426,0.0280326754 30.3661442,0.0670245588 30.4412649,0.0825383507 C32.2590726,0.456611547 33.4243754,1.55303013 33.9641587,3.36847563 C34.0537038,3.66945978 33.9751796,3.80916687 33.7317464,3.96181595 C31.622694,5.28488522 29.5198004,6.61832467 27.4160154,7.95018785 C24.3518685,9.8901585 21.2870733,11.8291336 18.2256816,13.7736671 C17.4860627,14.2433949 16.7326677,14.3209638 15.9817037,13.8482495 C10.7240646,10.539 5.47234106,7.21996114 0.214458787,3.91104354 C0.0187559726,3.78784578 -0.0371591171,3.67087013 0.0229698634,3.44778678 C0.446952109,1.87317838 1.3974276,0.797997931 2.90583844,0.252941178 C3.19262612,0.149322321 3.49237963,0.0833679653 3.78613644,-8.29614542e-06" id="Fill-1" fill="#FFFFFF" mask="url(#mask-2)"></path>
                    </g>
                    <g id="Group-6" transform="translate(3.000000, 13.611111)">
                        <mask id="mask-4" fill="white">
                            <use xlink:href="#path-3"></use>
                        </mask>
                        <g id="Clip-5"></g>
                        <path d="M33.9993815,0.000242281479 L33.9993815,0.452097239 C33.9993815,5.40295773 34.0013897,10.3538182 33.9984979,15.3046787 C33.9970519,17.6691037 32.5529059,19.3951169 30.24563,19.7952044 C30.0498694,19.8291238 29.8469596,19.8313044 29.6473432,19.8313851 C21.2204804,19.8330003 12.7935372,19.8346963 4.36667443,19.8316274 C1.94991075,19.8306583 0.0182509572,17.939086 0.00973613466,15.5179672 C-0.00817712408,10.4464505 0.00403281013,5.37477232 0.0044344527,0.30317489 C0.0044344527,0.224191128 0.0126279612,0.145126606 0.0206608126,0 C0.163243926,0.0831025472 0.273454648,0.143915198 0.380371901,0.210138802 C5.1029656,3.13431473 9.82821014,6.05421035 14.5459841,8.98613928 C16.1842842,10.0042868 17.8073218,10.0102631 19.4416054,8.99809184 C24.1538368,6.07973067 28.8659074,3.16128873 33.5784601,0.243412126 C33.6984709,0.169112472 33.8228997,0.102000503 33.9993815,0.000242281479" id="Fill-4" fill="#FFFFFF" mask="url(#mask-4)"></path>
                    </g>
                </g>
            </g>
        </g>
    </g>
</svg>