<?xml version="1.0" encoding="UTF-8"?>
<svg width="48px" height="49px" viewBox="0 0 48 49" version="1.1" xmlns="http://www.w3.org/2000/svg" xmlns:xlink="http://www.w3.org/1999/xlink">
    <title>A68FA8B6-62F6-45F8-B003-0890F6BC3F5D</title>
    <defs>
        <polygon id="path-1" points="0 0 35 0 35 42.2058824 0 42.2058824"></polygon>
    </defs>
    <g id="HOME" stroke="none" stroke-width="1" fill="none" fill-rule="evenodd">
        <g id="HOME/navi" transform="translate(-193.000000, -21.000000)">
            <g id="NAVI/navi_bar_home" transform="translate(0.000000, 0.294688)">
                <g id="ICON/BASIC/navi_area_off" transform="translate(193.000000, 21.000000)">
                    <g id="Group-6" transform="translate(6.000000, 4.000000)">
                        <g id="Group-3">
                            <mask id="mask-2" fill="white">
                                <use xlink:href="#path-1"></use>
                            </mask>
                            <g id="Clip-2"></g>
                            <path d="M33.0193307,18.107744 C32.9989519,21.2855297 31.7780777,24.6281627 29.4882438,27.7751109 C27.5396619,30.4522631 25.0856862,32.7369033 22.712114,34.9465437 L17.8527011,39.4872709 C17.7389505,39.5942504 17.6244588,39.7012299 17.5107081,39.8059251 C17.4869946,39.7807982 17.4655043,39.7587171 17.4469781,39.7408237 L16.1664496,38.5450138 C15.7525751,38.1612582 15.3390712,37.7771219 14.930384,37.3876557 C14.3571844,36.8417177 13.7795386,36.2988253 13.1981876,35.7528873 C11.152158,33.8303022 9.03647008,31.842235 7.14494871,29.7262493 C4.56832979,26.8431331 2.99879315,24.0502451 2.34630165,21.1880679 C2.16696838,20.4007598 2.0591461,19.5746193 2.01690645,18.6624383 C2.00542023,18.4027941 1.99504557,18.1442921 1.99838028,17.8796987 C2.03654418,11.1377068 6.40723685,4.9561198 12.6268407,2.84698685 C14.198971,2.31437367 15.8448354,2.04406963 17.5188596,2.04406963 C19.2077048,2.04406963 20.8628323,2.31856148 22.4386678,2.8606924 C25.4647315,3.90231474 28.1665873,5.93758997 30.0469929,8.59151882 C31.9848297,11.327681 33.0408211,14.707243 33.0193307,18.107744 M34.9071469,15.9715806 C34.8719472,15.6228503 34.8200739,15.250516 34.7533797,14.8648569 C33.7966886,9.39139036 30.3686072,4.59254183 25.5829284,2.02731839 C20.6923916,-0.593488693 14.8218206,-0.678006295 9.87718741,1.8011767 C5.02592604,4.23315166 1.4655678,8.92882781 0.352515853,14.3619391 C-0.241803496,17.2621872 -0.0824784832,20.2736027 0.813076296,23.0706785 C1.57413112,25.4485926 2.94395571,27.816989 5.00073046,30.3114004 C6.52061697,32.1547978 8.26059432,33.8219266 9.95129207,35.442228 C10.2706831,35.7479381 10.5893332,36.0536481 10.9061306,36.3601196 C11.7624099,37.187783 12.6427732,38.0154463 13.4942357,38.8160793 L14.0685468,39.3563067 C14.1241253,39.4080832 14.2827093,39.5523723 14.5139158,39.7625242 C15.0563619,40.2551628 16.4965859,41.5632821 16.8404315,41.9333321 C16.9671505,42.0570628 17.2142895,42.2059204 17.5058913,42.2059204 C17.691153,42.2059204 17.8945702,42.1457683 18.0961349,41.9805402 L18.1265178,41.9527483 C18.1424503,41.9367585 18.1983993,41.8842205 18.3784737,41.7460228 C18.440351,41.6988148 18.4888896,41.6596017 18.5137147,41.6382819 C18.7167614,41.454399 18.9186966,41.2686126 19.1184087,41.0809226 L20.2359069,40.0301632 C20.8091064,39.4914587 21.3856406,38.9561806 21.9618043,38.4209024 L22.672468,37.7603707 C23.0226125,37.4352444 23.3742391,37.1101182 23.7462445,36.7667178 C26.1742836,34.5231943 28.6856904,32.2035287 30.7261621,29.4806914 C33.1971819,26.1833628 34.6099872,22.9088767 34.9245615,19.7516494 C35.10056,18.114216 34.9149279,16.0610474 34.9071469,15.9715806" id="Fill-1" fill="#222222" mask="url(#mask-2)"></path>
                        </g>
                        <path d="M17.5,23.6764706 C14.6617824,23.6764706 12.3529412,21.3676293 12.3529412,18.5294118 C12.3529412,15.6911942 14.6617824,13.3823529 17.5,13.3823529 C20.3382176,13.3823529 22.6470588,15.6911942 22.6470588,18.5294118 C22.6470588,21.3676293 20.3382176,23.6764706 17.5,23.6764706 M17.5,11.3235294 C13.5268461,11.3235294 10.2941176,14.5562579 10.2941176,18.5294118 C10.2941176,22.5025657 13.5268461,25.7352941 17.5,25.7352941 C21.4731539,25.7352941 24.7058824,22.5025657 24.7058824,18.5294118 C24.7058824,14.5562579 21.4731539,11.3235294 17.5,11.3235294" id="Fill-4" fill="#222222"></path>
                    </g>
                </g>
            </g>
        </g>
    </g>
</svg>