<?xml version="1.0" encoding="UTF-8"?>
<svg width="48px" height="49px" viewBox="0 0 48 49" version="1.1" xmlns="http://www.w3.org/2000/svg" xmlns:xlink="http://www.w3.org/1999/xlink">
    <title>DE2B9226-FBD6-4885-8541-79F271EC386D</title>
    <defs>
        <polygon id="path-1" points="0 0 39 0 39 37 0 37"></polygon>
    </defs>
    <g id="HOME" stroke="none" stroke-width="1" fill="none" fill-rule="evenodd">
        <g id="HOME/navi" transform="translate(-624.000000, -21.000000)">
            <g id="NAVI/navi_bar_home" transform="translate(0.000000, 0.294688)">
                <g id="ICON/BASIC/icon_setting_off" transform="translate(624.000000, 21.000000)">
                    <rect id="Rectangle-Copy-19" x="0" y="0" width="48" height="48"></rect>
                    <g id="Group-6" transform="translate(4.000000, 7.000000)">
                        <g id="Group-3">
                            <mask id="mask-2" fill="white">
                                <use xlink:href="#path-1"></use>
                            </mask>
                            <g id="Clip-2"></g>
                            <path d="M36.6951634,19.8763821 L35.1259422,22.759137 C33.1967097,26.3022113 31.2017427,29.9662162 29.2625736,33.5876075 C28.7152953,34.609183 28.1458507,34.9374232 27.6417585,35.0806204 L11.3789555,35.0806204 C10.8752455,34.9374232 10.3058009,34.609183 9.75814038,33.5891431 C7.45246299,29.2955313 5.15901528,25.1063421 2.61447689,20.4668305 C2.22006962,19.7481572 1.97585814,19.2179822 1.91088795,18.6805129 L1.91088795,18.4578471 C1.97280071,17.981035 2.09891932,17.5725584 2.29612296,17.2105344 C4.52268959,13.1211609 6.93881631,8.67321867 9.89916391,3.21253071 C10.3952304,2.2972973 10.9895166,1.92414005 11.9537506,1.92414005 L13.6403003,1.92605958 C15.7782018,1.92836302 17.9164854,1.93066646 20.0543868,1.93066646 C22.3562424,1.93066646 24.6569515,1.92797912 26.9595715,1.91953317 L26.9737121,1.91953317 C28.0197321,1.91953317 28.6358024,2.30459152 29.1712332,3.29353501 C31.176519,6.9963145 33.2269018,10.7520731 35.2100213,14.3838299 L36.6901951,17.0953624 C37.2229506,18.071637 37.2244794,18.9031787 36.6951634,19.8763821 M38.3656616,16.1728348 C35.8570479,11.5759367 33.3438481,6.98210995 30.8501393,2.37638206 C29.9803032,0.770116708 28.7122379,0 26.9737121,0 C26.9664507,0 26.9591893,0 26.9519279,0 C24.6523654,0.00844594595 22.3539494,0.0111332924 20.0543868,0.0111332924 C17.3550665,0.0111332924 14.6549818,0.00729422604 11.9556615,0.00460687961 L11.9499289,0.00460687961 C10.2874563,0.00460687961 9.05149402,0.762822482 8.22102212,2.29460995 C5.6906243,6.9617629 3.15793342,11.6273802 0.619509872,16.2895424 C0.270199555,16.9306665 0.0798751161,17.6159398 0,18.3438268 L0,18.7795608 C0.0867543127,19.7435504 0.489569492,20.5708692 0.940921224,21.3931972 C3.33258858,25.7539926 5.72196286,30.1163237 8.07617681,34.5001536 C8.78358753,35.8177211 9.74552852,36.6934122 11.1485025,37.0001536 L27.8718294,37.0001536 C29.2767142,36.6937961 30.238273,35.8173372 30.9453016,34.4966984 C33.3981173,29.9163084 35.8902974,25.3597205 38.3721587,20.7966063 C39.2133315,19.2502303 39.2075989,17.7153716 38.3656616,16.1728348" id="Fill-1" fill="#231F20" mask="url(#mask-2)"></path>
                        </g>
                        <path d="M19.5,23.0858752 C16.9712051,23.0858752 14.9141248,21.0287949 14.9141248,18.5 C14.9141248,15.9715947 16.9712051,13.9145143 19.5,13.9145143 C22.0287949,13.9145143 24.0858752,15.9715947 24.0858752,18.5 C24.0858752,21.0287949 22.0287949,23.0858752 19.5,23.0858752 M19.5,12 C15.9159825,12 13,14.9159825 13,18.5 C13,22.0840175 15.9159825,25 19.5,25 C23.0840175,25 26,22.0840175 26,18.5 C26,14.9159825 23.0840175,12 19.5,12" id="Fill-4" fill="#231F20"></path>
                    </g>
                </g>
            </g>
        </g>
    </g>
</svg>