<?xml version="1.0" encoding="UTF-8"?>
<svg width="16px" height="17px" viewBox="0 0 16 17" version="1.1" xmlns="http://www.w3.org/2000/svg" xmlns:xlink="http://www.w3.org/1999/xlink">
    <title>608922DD-7A19-4C27-94EE-E76677752537</title>
    <g id="REGION" stroke="none" stroke-width="1" fill="none" fill-rule="evenodd">
        <g id="REGION/result_list_-ver2" transform="translate(-173.000000, -2416.000000)">
            <g id="Group-6" transform="translate(40.000000, 1921.000000)">
                <g id="ICON/BASIC/icon_heart" transform="translate(133.000000, 495.616622)">
                    <rect id="Rectangle-Copy-19" x="0" y="0" width="16" height="16.0857909"></rect>
                    <path d="M16,5.79504194 L16,7.21119189 C15.9930849,7.20030737 15.9855505,7.17970075 15.9795643,7.18012345 C15.9565483,7.18181425 15.9567547,7.18435045 15.9524199,7.2250353 C15.8113309,8.57313058 15.3272727,9.77528876 14.4317135,10.777827 C13.6652709,11.6358019 12.8397918,12.4344931 11.9691063,13.1849966 C10.844729,14.1541415 9.63179696,14.990136 8.37407144,15.7630425 C8.09498972,15.934553 7.83345382,15.9148974 7.5542689,15.7516296 C6.61360663,15.2019086 5.73321941,14.5626808 4.87151332,13.8942868 C3.73423468,13.012218 2.70873323,12.0041847 1.7212133,10.9550439 C1.06861209,10.2617105 0.594668578,9.4520291 0.31249054,8.53107195 C0.0674683522,7.73174667 -0.0597904337,6.91318854 0.0275258135,6.07624297 C0.14002547,4.99740746 0.550597612,4.04960887 1.27843943,3.24975521 C2.34522516,2.07739736 3.65682666,1.61274463 5.19435637,1.86520207 C6.33235749,2.05203538 7.2252332,2.6748835 7.91653843,3.60894435 C8.00591889,3.72973081 8.00385468,3.73089323 8.09375119,3.6083103 C8.26084931,3.38036944 8.45147946,3.17409195 8.653566,2.97848762 C10.02761,1.64877978 11.9553793,1.44778604 13.5265557,2.29255155 C14.8492008,3.00374393 15.5982008,4.18043445 15.9046333,5.66273691 C15.9267204,5.76989131 15.9368351,5.8795819 15.9570644,6.01991823 C15.980906,5.92333133 15.96914,5.85495964 16,5.79504194" id="icon_heart" fill="#FF5B2C"></path>
                </g>
            </g>
        </g>
    </g>
</svg>