<svg width="48" height="48" viewBox="0 0 48 48" xmlns="http://www.w3.org/2000/svg" xmlns:xlink="http://www.w3.org/1999/xlink">
    <defs>
        <path id="c9okb3vspa" d="M0 0h34v30.97H0z"/>
    </defs>
    <g transform="translate(7 9)" fill="none" fill-rule="evenodd">
        <mask id="3fd4ygjx3b" fill="#fff">
            <use xlink:href="#c9okb3vspa"/>
        </mask>
        <path d="M9.14 0a7.01 7.01 0 0 0-1.985.284C3.565 1.426 1.043 3.652.235 7.43c-.62 2.897.023 5.626 1.517 8.174 1.33 2.268 3.044 4.229 4.87 6.092 2.967 3.027 6.15 5.827 9.28 8.68.362.33.69.594 1.065.594.247 0 .514-.115.824-.4 4.174-3.849 8.536-7.501 12.191-11.88 1.72-2.059 3.049-4.333 3.76-6.94a9.809 9.809 0 0 0 0-4.474c-1.082-3.58-3.418-5.907-6.997-6.992-.77-.142-1.4-.213-2.083-.213-.682 0-1.416.071-2.395.213-1.664.585-3.273 1.272-4.589 2.495-.247.23-.488.345-.728.345s-.481-.115-.729-.345C14.906 1.556 13.296.869 11.633.284 10.812.152 10.013 0 9.14 0m0 3.406c.487 0 1.02.087 1.635.19h.004c1.306.473 2.344.953 3.124 1.677C15.02 6.312 16.176 6.53 16.95 6.53s1.93-.218 3.047-1.257c.773-.717 1.798-1.196 3.088-1.664.68-.092 1.163-.132 1.577-.132.39 0 .769.036 1.272.122 2.334.755 3.773 2.206 4.512 4.546.2.95.198 1.858-.008 2.772-.536 1.929-1.54 3.758-3.07 5.59-2.73 3.27-5.872 6.11-9.2 9.115l-1.22 1.104-.578-.524c-2.455-2.223-4.992-4.52-7.315-6.89-1.368-1.395-3.1-3.274-4.365-5.431-1.16-1.978-1.528-3.855-1.125-5.739.497-2.318 1.909-3.738 4.577-4.598.337-.094.655-.138.998-.138" fill="#231F20" mask="url(#3fd4ygjx3b)"/>
    </g>
</svg>
