<svg width="40" height="40" viewBox="0 0 40 40" xmlns="http://www.w3.org/2000/svg" xmlns:xlink="http://www.w3.org/1999/xlink">
    <defs>
        <path id="q0ncc4awja" d="M1 3h38v34.833H1z"/>
    </defs>
    <g fill="none" fill-rule="evenodd">
        <path d="M0 0h40v40H0z"/>
        <mask id="0ovczf70ab" fill="#fff">
            <use xlink:href="#q0ncc4awja"/>
        </mask>
        <path d="M38.507 14.567c-.797-2.764-2.425-4.985-4.608-6.81-3.011-2.519-6.517-3.917-10.372-4.487-3.69-.545-7.32-.275-10.867.898C8.907 5.41 5.7 7.455 3.364 10.716c-1.283 1.792-2.08 3.782-2.3 5.99-.008.084-.042.165-.064.248v1.858c.132.714.22 1.44.404 2.14.704 2.666 2.196 4.846 4.21 6.688 1.278 1.168 2.713 2.104 4.29 2.894-.243.835-.49 1.659-.723 2.487-.387 1.38-.772 2.761-1.135 4.148-.05.19-.033.544.067.594a.839.839 0 0 0 .68-.003c.728-.39 1.449-.804 2.134-1.265 1.815-1.224 3.607-2.48 5.417-3.711a.915.915 0 0 1 .566-.157c4.129.471 8.143.05 11.998-1.558 3.06-1.276 5.684-3.142 7.648-5.856 1.323-1.828 2.156-3.854 2.38-6.115.009-.097.042-.19.064-.286v-1.784c-.16-.822-.263-1.66-.493-2.461" fill="#361F1E" mask="url(#0ovczf70ab)"/>
    </g>
</svg>
