<?xml version="1.0" encoding="UTF-8"?>
<svg width="120px" height="120px" viewBox="0 0 120 120" version="1.1" xmlns="http://www.w3.org/2000/svg" xmlns:xlink="http://www.w3.org/1999/xlink">
    <title>D547D7DA-E722-4543-A6C0-462FA3CB37AD</title>
    <defs>
        <polygon id="path-1" points="0 0 6 0 6 18 0 18"></polygon>
    </defs>
    <g id="LOGIN/MEMBER" stroke="none" stroke-width="1" fill="none" fill-rule="evenodd">
        <g id="LOGIN/join_finish" transform="translate(-40.000000, -124.000000)">
            <g id="Group" transform="translate(40.000000, 124.000000)">
                <circle id="Oval" fill="#F8D7C4" cx="60" cy="60" r="60"></circle>
                <g id="Group-10" transform="translate(39.428571, 36.857143)">
                    <path d="M20.700892,47.1428571 C14.631957,47.1119485 9.03208519,45.0360087 4.45067203,40.3856565 C3.3262959,39.2445641 3.13509419,37.9390936 3.84983096,36.6957215 C4.5532882,35.4717375 5.64382575,34.9401081 6.98003686,35.2635254 C7.60591298,35.4152589 8.26150102,35.8027415 8.71653358,36.2725535 C15.0839633,42.8476738 27.2402657,42.6605358 33.3358864,36.2540083 C34.7436262,34.7746062 36.6506914,34.8136635 37.818535,36.1261587 C38.9803261,37.4324721 38.788299,39.2667621 37.3065545,40.7054209 C32.7432987,45.1351975 27.2501697,47.1254359 20.700892,47.1428571" id="Fill-1" fill="#E03CE2"></path>
                    <path d="M23.9937859,12.0121398 C23.9937859,14.7885849 24.0047542,17.56503 23.9912548,20.3414751 C23.9681933,25.0998816 20.3312286,28.8527825 15.4860671,29.1356066 C13.6439608,29.243036 12.2107739,28.1470924 12.0181262,26.4835822 C11.8327906,24.8825564 13.0871103,23.5122845 14.9373725,23.2946853 C17.0677474,23.0441996 17.9769886,22.0496561 17.9868319,19.8125501 C18.0101746,14.5783852 17.9938628,9.34394621 17.9983626,4.10978129 C17.9986439,3.60990607 17.9961127,3.10564598 18.0577038,2.61097779 C18.267507,0.930476233 19.5077649,-0.0824288165 21.2095336,0.00526859041 C22.790089,0.0866627462 23.9617248,1.24070581 23.9805678,2.86365595 C24.0165662,5.91278516 23.9909735,8.96246249 23.9937859,12.0121398" id="Fill-3" fill="#E03CE2"></path>
                    <g id="Group-7">
                        <mask id="mask-2" fill="white">
                            <use xlink:href="#path-1"></use>
                        </mask>
                        <g id="Clip-6"></g>
                        <path d="M5.99252583,8.97324776 C5.99252583,10.9357222 6.01277161,12.8981966 5.98662081,14.8603893 C5.96300074,16.6326468 4.71563576,17.952611 3.08050786,17.9988266 C1.51736495,18.0430697 0.0962236918,16.8315996 0.0630431084,15.1371196 C-0.0173776276,11.0278717 -0.0244074122,6.91496039 0.0619183429,2.80627612 C0.100160371,0.992593546 1.47096837,-0.0909380731 3.21857283,0.00600207692 C4.84414022,0.0958971579 5.96328193,1.31384869 5.98633962,3.08610626 C6.01220923,5.04829889 5.99224464,7.01077333 5.99252583,8.97324776" id="Fill-5" fill="#E03CE2" mask="url(#mask-2)"></path>
                    </g>
                    <path d="M41.1364468,9.01535469 C41.1364468,10.9306283 41.1513239,12.8459018 41.1322363,14.7611754 C41.1137101,16.6240452 39.8645967,17.9794999 38.1885391,17.9997852 C36.5790074,18.0189436 35.2204211,16.7544911 35.191509,14.957267 C35.1272288,10.9416161 35.1227376,6.9228662 35.2016142,2.90749714 C35.2381052,1.06660313 36.5416743,-0.048526731 38.2682578,0.00162312116 C39.957789,0.0506460103 41.1092189,1.28551568 41.1311135,3.12950884 C41.1541309,5.09126963 41.1361661,7.05331216 41.1364468,9.01535469" id="Fill-8" fill="#E03CE2"></path>
                </g>
            </g>
        </g>
    </g>
</svg>