<svg width="44" height="44" viewBox="0 0 44 44" xmlns="http://www.w3.org/2000/svg" xmlns:xlink="http://www.w3.org/1999/xlink">
    <defs>
        <path id="v2purx9hea" d="M0 0h29v31.429H0z"/>
    </defs>
    <g fill="none" fill-rule="evenodd">
        <path d="M0 0h44v43.022H0z"/>
        <g transform="translate(8 6.286)">
            <mask id="odtg74y5cb" fill="#fff">
                <use xlink:href="#v2purx9hea"/>
            </mask>
            <path d="M17.856 17.75h-.005c0-2.862-.006-5.724.008-8.586.002-.406-.116-.63-.43-.82-1.942-1.176-3.872-2.375-5.807-3.564-.428-.262-.438-.255-.438.28-.001 5.755.002 11.51-.007 17.265-.001.388.113.604.411.785 1.953 1.183 3.897 2.387 5.844 3.582.41.251.423.241.423-.309v-8.632m9.619-13.446v19.016c-.193.774-.62 1.315-1.22 1.73a484.657 484.657 0 0 0-6.074 4.24c-.896.638-1.746.633-2.668.051-2.275-1.436-4.575-2.818-6.856-4.24-.34-.213-.598-.18-.917.048-1.604 1.147-3.223 2.267-4.834 3.403-.754.533-1.526.629-2.305.113-.762-.503-1.075-1.29-1.074-2.291.01-5.836.01-11.671 0-17.507-.001-1.06.37-1.832 1.162-2.38C4.728 5.073 6.76 3.644 8.79 2.214c.343-.241.695-.447 1.087-.56h.64c.405.11.772.32 1.135.545 2.236 1.384 4.477 2.755 6.706 4.151.35.22.615.2.951-.04a386.376 386.376 0 0 1 4.862-3.423c1.003-.697 2.148-.502 2.848.458.208.286.325.625.454.96" fill="#222" mask="url(#odtg74y5cb)"/>
        </g>
    </g>
</svg>
