<svg width="72" height="72" viewBox="0 0 72 72" xmlns="http://www.w3.org/2000/svg" xmlns:xlink="http://www.w3.org/1999/xlink">
    <defs>
        <path id="v4chq0xi3a" d="M0 0h72v72H0z"/>
    </defs>
    <g fill="none" fill-rule="evenodd">
        <g>
            <mask id="mrde0lvfhb" fill="#fff">
                <use xlink:href="#v4chq0xi3a"/>
            </mask>
            <path d="M68.866 36.07c.04-18.003-14.652-32.746-32.739-32.852C18.132 3.114 3.271 17.928 3.233 36.01c-.038 18 14.658 32.748 32.736 32.851 18.001.102 32.855-14.704 32.897-32.792zM36.448 0c1.885 0 3.634.279 5.416.609 12.98 2.4 22.317 9.639 27.359 21.794 8.467 20.418-3.188 43.115-24.625 48.536-19.232 4.863-39.3-7.487-43.544-26.85C.59 41.965.126 39.568.016 37.603c-.021-.39-.021-.744 0-1.164v-.796c0-1.687.316-3.617.6-5.406C3.027 15.084 15.028 3.077 30.24.603 32.03.312 33.847 0 35.652 0h.796z" fill="#FF5B2C" mask="url(#mrde0lvfhb)"/>
        </g>
        <path d="M29.386 45.336c.347-.33.613-.572.867-.827 6.801-6.801 13.601-13.604 20.402-20.407.21-.211.414-.431.637-.63.751-.67 1.576-.691 2.223-.07.638.614.646 1.586-.058 2.303-1.953 1.987-3.932 3.947-5.902 5.917-5.535 5.536-11.069 11.072-16.605 16.606-1.213 1.213-1.873 1.212-3.081.004-2.956-2.954-5.91-5.91-8.865-8.865-.141-.141-.289-.276-.418-.426-.627-.73-.632-1.622-.019-2.234.626-.625 1.508-.653 2.219.03 1.364 1.308 2.687 2.66 4.023 3.997 1.498 1.501 2.991 3.008 4.577 4.602" fill="#FF5B2C"/>
    </g>
</svg>
