<?xml version="1.0" encoding="UTF-8"?>
<svg width="44px" height="44px" viewBox="0 0 44 44" version="1.1" xmlns="http://www.w3.org/2000/svg" xmlns:xlink="http://www.w3.org/1999/xlink">
    <title>6420DA01-5C86-4849-99F3-E2751792D089</title>
    <defs>
        <polygon id="path-1" points="5 5 39 5 39 39 5 39"></polygon>
    </defs>
    <g id="AROUND" stroke="none" stroke-width="1" fill="none" fill-rule="evenodd">
        <g id="AROUND/mynear_popup" transform="translate(-242.000000, -1300.000000)">
            <g id="btn_필터적용하기" transform="translate(40.000000, 1278.000000)">
                <g id="icon_location" transform="translate(202.000000, 22.000000)">
                    <rect id="Rectangle" x="0" y="0" width="44" height="44"></rect>
                    <g id="Group-6">
                        <rect id="Rectangle" x="0" y="0" width="44" height="44"></rect>
                        <mask id="mask-2" fill="white">
                            <use xlink:href="#path-1"></use>
                        </mask>
                        <g id="Clip-5"></g>
                        <path d="M32.8740536,21.9752149 C32.8683608,16.0038119 28.0040529,11.139477 22.0303777,11.1312054 C16.0538586,11.1232117 11.1699021,15.9730887 11.1486321,21.9375209 C11.1272441,27.9708866 16.0223175,32.8656866 22.0570066,32.8461238 C28.0265453,32.8264435 32.8797363,27.9491996 32.8740536,21.9752149 M23.5632228,39 L20.5151128,39 L20.5151128,35.9553048 C13.5683175,34.6610576 9.39843055,30.6045622 8.06879272,23.5640434 L5,23.5640434 L5,20.4824287 L8.04449057,20.4824287 C9.36740653,13.4641132 13.4749869,9.34152416 20.4608208,8.04727698 L20.4608208,5 L23.4944529,5 L23.4944529,8.02636455 C30.512862,9.33455335 34.6457787,13.4313246 35.9614557,20.4153024 L39,20.4153024 L39,23.4994988 L35.9754165,23.4994988 C35.8024576,24.232983 35.6765518,24.8983082 35.4883394,25.5453027 C33.9043046,30.9905385 30.3132742,34.3664763 24.8109056,35.6188986 C23.7666887,35.8564226 23.4305952,36.1938614 23.5513303,37.1865565 C23.618032,37.7359597 23.5632228,38.2998208 23.5632228,39" id="Fill-4" fill="#231F20" mask="url(#mask-2)"></path>
                        <path d="M22.0382494,16 C25.3579721,16.018575 28.0461524,18.7695884 27.9993993,22.100525 C27.9538962,25.3632794 25.2367139,28.0181385 21.9617443,28 C18.6420216,27.9811753 15.9540913,25.2304116 16.0005944,21.899475 C16.0460975,18.6367206 18.7632797,15.9818615 22.0382494,16" id="Fill-7" fill="#231F20" mask="url(#mask-2)"></path>
                    </g>
                </g>
            </g>
        </g>
    </g>
</svg>