<svg width="48" height="48" viewBox="0 0 48 48" xmlns="http://www.w3.org/2000/svg" xmlns:xlink="http://www.w3.org/1999/xlink">
    <defs>
        <path id="1p76tso65a" d="M0 0h48v48H0z"/>
    </defs>
    <g fill="none" fill-rule="evenodd">
        <g>
            <mask id="ekhh1mqycb" fill="#fff">
                <use xlink:href="#1p76tso65a"/>
            </mask>
            <path d="M46.41 24.015C46.27 11.573 36.5 1.624 23.997 1.612 11.606 1.6 1.607 11.435 1.585 23.986c-.023 12.437 9.865 22.43 22.408 22.428 12.47 0 22.27-9.922 22.417-22.399zM0 22.293c.152-1.184.28-2.37.552-3.536 1.477-6.319 4.913-11.28 10.313-14.865C14.068 1.766 17.608.496 21.427.13c6.901-.664 13.047 1.23 18.312 5.766 4.14 3.566 6.775 8.076 7.784 13.438 1.44 7.655-.379 14.523-5.444 20.452-3.537 4.14-8.058 6.678-13.384 7.786-.989.206-1.994.296-2.993.429h-3.44c-1.016-.134-2.035-.235-3.04-.442-4.272-.878-8.05-2.752-11.288-5.672C4.17 38.492 1.72 34.31.57 29.368c-.279-1.2-.418-2.417-.57-3.634v-3.441z" fill="#999" mask="url(#ekhh1mqycb)"/>
        </g>
        <path d="m25.125 24 8.642-8.642a.797.797 0 0 0-1.125-1.125L24 22.875l-8.642-8.643a.797.797 0 0 0-1.125 1.126L22.875 24l-8.642 8.642a.797.797 0 0 0 1.125 1.125L24 25.125l8.642 8.642c.15.15.35.233.563.233a.797.797 0 0 0 .563-1.358L25.124 24z" fill="#999"/>
    </g>
</svg>
