<svg width="48" height="48" viewBox="0 0 48 48" xmlns="http://www.w3.org/2000/svg" xmlns:xlink="http://www.w3.org/1999/xlink">
    <defs>
        <path id="h8bn7ly8wa" d="M0 0h36v34.244H0z"/>
    </defs>
    <g fill="none" fill-rule="evenodd">
        <path d="M0 0h48v48H0z"/>
        <g transform="translate(6 7)">
            <mask id="jdcmvgav7b" fill="#fff">
                <use xlink:href="#h8bn7ly8wa"/>
            </mask>
            <path d="M33.642 13.773a2.438 2.438 0 0 1-.09.093c-.661.651-1.321 1.303-1.981 1.956a736.332 736.332 0 0 1-4.412 4.335c-.763.74-1.05 1.59-.875 2.597.343 1.991.68 4.068.975 5.9.159.983.317 1.966.48 2.949.01.067.017.117.02.154l.024.273-.254-.107a1.881 1.881 0 0 1-.124-.058c-.826-.423-1.653-.844-2.48-1.264l-.191-.098a547.598 547.598 0 0 1-5.28-2.71c-.996-.52-1.897-.523-2.874-.013-2.037 1.064-4.124 2.122-6.142 3.145l-1.81.918c-.063.032-.112.055-.149.07l-.278.121.188-1.174c.093-.573.187-1.161.284-1.75l.447-2.731c.214-1.307.428-2.613.639-3.92.13-.801-.141-1.537-.805-2.189a2082.95 2082.95 0 0 1-4.56-4.49l-1.798-1.77c-.08-.076-.158-.151-.232-.231l-.206-.226.303-.048c1.348-.215 2.698-.423 4.048-.63l2.802-.432c.85-.131 1.701-.262 2.55-.4.785-.127 1.392-.606 1.806-1.423.97-1.917 1.947-3.832 2.923-5.746l1.176-2.304c.029-.055.057-.11.081-.166l.13-.305.168.284c.01.016.02.036.032.06.726 1.432 1.456 2.864 2.186 4.296l1.034 2.027c.328.644.656 1.288.981 1.934.392.774 1.03 1.235 1.899 1.367 1.662.253 3.324.51 4.985.768 1.395.216 2.79.432 4.185.646.046.007.081.013.108.02l.281.061-.194.21zm.23-2.5c-1.134-.172-2.267-.347-3.4-.521-1.857-.287-3.713-.572-5.571-.85-.335-.05-.479-.15-.616-.425-.855-1.712-1.735-3.436-2.586-5.105-.494-.968-.987-1.936-1.478-2.905C19.843.72 19.322.27 18.628.087A2.572 2.572 0 0 0 17.971 0c-.912 0-1.702.521-2.166 1.43l-.184.36c-1.291 2.529-2.626 5.143-3.922 7.722-.126.25-.246.339-.514.378-2.067.306-4.132.624-6.198.941l-1.967.302c-.126.02-.251.04-.377.063-.166.028-.332.057-.5.08-.99.131-1.705.708-2.011 1.621-.305.91-.08 1.77.65 2.49l2.666 2.628c1.289 1.272 2.578 2.544 3.87 3.813.186.183.21.278.18.453-.411 2.442-.808 4.886-1.204 7.33l-.28 1.726c-.216 1.33.449 2.403 1.735 2.8l.092.046.12.06h.755l1.695-.832c1.154-.567 2.307-1.134 3.458-1.708 1.212-.604 2.514-1.26 3.821-1.954.163-.087.257-.097.314-.097.09 0 .19.03.316.095 2.531 1.307 5.032 2.578 7.805 3.985.246.125.496.228.738.327.119.049.227.094.334.14l.105.045h.711l.098-.039c1.635-.642 2.095-1.436 1.823-3.145-.546-3.43-1-6.22-1.427-8.778-.028-.168-.013-.264.15-.424 1.114-1.094 2.225-2.19 3.336-3.286l.222-.218c.992-.98 1.985-1.959 2.978-2.936.943-.928.89-1.882.68-2.518-.3-.91-.993-1.472-2.002-1.626z" fill="#222" mask="url(#jdcmvgav7b)"/>
        </g>
    </g>
</svg>
