<?xml version="1.0" encoding="UTF-8"?>
<svg width="16px" height="17px" viewBox="0 0 16 17" version="1.1" xmlns="http://www.w3.org/2000/svg" xmlns:xlink="http://www.w3.org/1999/xlink">
    <title>43446A1D-8A90-44B6-9A15-6CB66577C723</title>
    <g id="REGION" stroke="none" stroke-width="1" fill="none" fill-rule="evenodd">
        <g id="REGION/result_list_-ver2" transform="translate(-82.000000, -2416.000000)">
            <g id="Group-6" transform="translate(40.000000, 1921.000000)">
                <g id="ICON/BASIC/icon_star" transform="translate(42.000000, 495.616622)">
                    <rect id="Rectangle" x="0" y="0" width="16" height="16.0857909"></rect>
                    <path d="M7.80842714,0 L8.16661187,0 C8.34896371,0.0856947066 8.45942788,0.232342298 8.54338638,0.413938614 C9.18729508,1.80640546 9.83836746,3.19548203 10.4804852,4.58877842 C10.5883705,4.82292406 10.7467956,4.95954508 11.0012142,4.99788408 C12.4427286,5.21507833 13.8833834,5.43836786 15.3251844,5.65361449 C15.6053207,5.69541591 15.8456269,5.78208442 15.975039,6.05922168 L15.975039,6.41988964 C15.9145774,6.56823237 15.8044356,6.67852463 15.6961206,6.79047596 C14.6434873,7.87850299 13.5926449,8.96829729 12.536788,10.0531504 C12.3774674,10.2168576 12.3048275,10.3960014 12.3412907,10.6215271 C12.5928797,12.1773404 12.8431434,13.7334063 13.0959143,15.2890032 C13.1654022,15.7168276 13.103866,15.8663244 12.7513764,16.0857909 L12.3931917,16.0857909 C11.026502,15.3233028 9.6596691,14.5611032 8.29330181,13.798074 C8.09508238,13.687385 7.89718531,13.6783323 7.69738987,13.7897787 C6.32543489,14.5549357 4.95365901,15.3204174 3.58184731,16.0857909 L3.22366258,16.0857909 C2.90204851,15.8907417 2.80967267,15.7112372 2.86329292,15.3784128 C3.11301932,13.828298 3.35834004,12.2774258 3.61777324,10.7289701 C3.66734601,10.4331863 3.60079528,10.2135755 3.39132885,9.99977158 C2.36122538,8.94820808 1.34122273,7.88665408 0.318533681,6.82773296 C0.198398522,6.70333858 0.0681267358,6.5859051 0,6.41988964 L0,6.05922168 C0.102942292,5.86482165 0.243601436,5.72203321 0.472839663,5.68712055 C1.8968747,5.47017877 3.31915463,5.24054148 4.74544623,5.04004617 C5.16047487,4.98172616 5.40916253,4.8085334 5.58503124,4.41219539 C6.18051335,3.07011385 6.81478687,1.74556078 7.42993333,0.412279542 C7.51396347,0.23017829 7.6262902,0.0854061722 7.80842714,0" id="icon_star" fill="#FF5B2C" transform="translate(7.987520, 8.042895) scale(-1, 1) translate(-7.987520, -8.042895) "></path>
                </g>
            </g>
        </g>
    </g>
</svg>