<svg width="22" height="18" viewBox="0 0 22 18" xmlns="http://www.w3.org/2000/svg" xmlns:xlink="http://www.w3.org/1999/xlink">
    <defs>
        <path id="0h7rpv91ea" d="M0 0h11v17.77H0z"/>
    </defs>
    <g fill="none" fill-rule="evenodd">
        <g>
            <mask id="93cjmkyg8b" fill="#fff">
                <use xlink:href="#0h7rpv91ea"/>
            </mask>
            <path d="M5.71 0c.228.184.475.35.68.556C7.822 2 9.245 3.451 10.673 4.896c.252.256.39.545.3.907-.174.7-.984.919-1.502.403-.641-.64-1.272-1.288-1.907-1.934L6.37 3.06v.36c0 5.575.003 7.766-.008 13.342 0 .225-.078.479-.198.668-.195.309-.606.407-.954.297-.34-.108-.577-.421-.606-.812-.007-.094-.003-.189-.003-.283V3.087c-.105.098-.173.156-.236.22-.953.967-1.905 1.936-2.86 2.901-.307.31-.693.373-1.046.184a.854.854 0 0 1-.436-.957c.038-.166.13-.343.247-.465A806.15 806.15 0 0 1 4.86.284c.12-.122.294-.19.443-.284h.407z" fill="#666" mask="url(#93cjmkyg8b)"/>
        </g>
        <path d="M16.637 0c.576.179.757.591.756 1.178-.01 5.51-.007 7.636-.007 13.146v.354c.112-.105.18-.165.242-.23.947-.959 1.89-1.923 2.841-2.878.449-.451 1.1-.373 1.407.155.21.36.153.779-.164 1.107-.445.46-.898.913-1.347 1.369l-3.162 3.21c-.47.476-.937.48-1.41 0a3035.577 3035.577 0 0 1-4.475-4.54c-.401-.409-.423-.937-.064-1.307.356-.367.902-.34 1.307.069.941.953 1.88 1.908 2.821 2.862.063.064.13.124.236.225v-.356c0-5.493.008-7.602-.01-13.095-.003-.633.174-1.06.775-1.269h.254z" fill="#666"/>
    </g>
</svg>
