<svg width="48" height="48" viewBox="0 0 48 48" xmlns="http://www.w3.org/2000/svg" xmlns:xlink="http://www.w3.org/1999/xlink">
    <defs>
        <path id="ucxxenme0a" d="M0 0h34v37H0z"/>
    </defs>
    <g fill="none" fill-rule="evenodd">
        <path d="M0 0h48v48H0z"/>
        <g transform="translate(7 6)">
            <mask id="4qlnw19wdb" fill="#fff">
                <use xlink:href="#ucxxenme0a"/>
            </mask>
            <path d="M16 8v27H2.002L2 14.816l.002-6.815H16zm2.003 27L18 10.492 18.001 8H32v27H18.003zM33.798 6.377a.852.852 0 0 0-.664-.317c-.228-.002-.455-.001-.682-.001h-.255l-12.472-.001 4.28-4.566c.242-.238.348-.52.299-.794-.049-.273-.245-.797-.545-.934l-.12.184.086-.208a.225.225 0 0 0-.124-.036L23.29 0a.227.227 0 0 0-.1.023c-.263.13-.451.028-.632.215l-.135.136a1207.954 1207.954 0 0 1-4.755 4.961c-.175.172-.35.047-.526.222l-.075-.072-1.236-1.213c-1.407-1.383-2.815-2.766-4.221-4.15a2.198 2.198 0 0 0-.512-.392.227.227 0 0 0-.107-.026h-.357c-.072 0-.138.33-.18.384l-.011.006a.843.843 0 0 0-.454.552.828.828 0 0 0 .152.693c.071.095.151.172.229.247l4.334 4.472-13.272.001h-.2c-.116-.001-.232-.002-.348 0-.495.004-.85.335-.88.824-.003.05-.003.1-.003.15v28.9c0 .08 0 .163.015.243.085.456.443.739.934.739h20.135l11.827-.001h.107c.06 0 .12 0 .178-.009.487-.063.803-.423.803-.918l-.001-6.48c0-7.372 0-15.114.002-22.487 0-.188-.023-.43-.202-.643z" fill="#231F20" mask="url(#4qlnw19wdb)"/>
        </g>
    </g>
</svg>
