<svg width="48" height="48" viewBox="0 0 48 48" xmlns="http://www.w3.org/2000/svg" xmlns:xlink="http://www.w3.org/1999/xlink">
    <defs>
        <path id="5n0uwi9hxa" d="M0 0h36v33.12H0z"/>
    </defs>
    <g fill="none" fill-rule="evenodd">
        <path d="M0 0h48v48H0z"/>
        <g transform="translate(6 7)">
            <mask id="wjankza2xb" fill="#fff">
                <use xlink:href="#5n0uwi9hxa"/>
            </mask>
            <path d="M24.753 6.966V5.29H11.306v1.673H9.084V5.297H2.227v5.037h31.612V5.299h-6.888v1.667h-2.198zM2.251 30.87H33.85V12.595H2.25v18.276zM24.776 0h2.199V3.12H36V33.11h-.987L0 33.12V3.077h9.09V0h2.198v3.033h13.488V0z" fill="#231F20" mask="url(#wjankza2xb)"/>
        </g>
        <path d="M22.527 26.58a1.138 1.138 0 0 1-1.169 1.062 1.107 1.107 0 0 1-1.06-1.159c.03-.608.566-1.103 1.157-1.07.599.034 1.103.584 1.072 1.167M27.678 26.552a1.108 1.108 0 0 1-1.13 1.09c-.607-.013-1.114-.534-1.1-1.13.014-.593.553-1.113 1.14-1.1a1.133 1.133 0 0 1 1.09 1.14M32.825 30.934c.01.63-.454 1.111-1.081 1.12a1.116 1.116 0 0 1-1.142-1.078c-.012-.58.514-1.127 1.1-1.142.6-.015 1.112.488 1.123 1.1M16.255 25.411c.587.003 1.12.538 1.118 1.123-.001.595-.523 1.11-1.124 1.108a1.091 1.091 0 0 1-1.097-1.114 1.111 1.111 0 0 1 1.103-1.117M32.824 26.539a1.09 1.09 0 0 1-1.108 1.103c-.602-.005-1.119-.524-1.114-1.118.006-.588.542-1.117 1.129-1.112a1.11 1.11 0 0 1 1.093 1.127M16.23 32.054c-.629-.01-1.09-.491-1.08-1.123.012-.608.53-1.114 1.125-1.097.587.016 1.113.564 1.098 1.144a1.116 1.116 0 0 1-1.144 1.076M21.434 29.835c.591.017 1.11.56 1.094 1.145a1.11 1.11 0 0 1-1.144 1.075 1.092 1.092 0 0 1-1.087-1.125c.014-.601.545-1.113 1.137-1.095M27.678 30.961a1.089 1.089 0 0 1-1.116 1.094 1.112 1.112 0 0 1-1.114-1.106c.004-.588.54-1.118 1.126-1.114.596.003 1.108.526 1.104 1.126" fill="#231F20"/>
    </g>
</svg>
