<svg width="48" height="48" viewBox="0 0 48 48" xmlns="http://www.w3.org/2000/svg" xmlns:xlink="http://www.w3.org/1999/xlink">
    <defs>
        <path id="vfsaxr09aa" d="M0 0h32v38.4H0z"/>
    </defs>
    <g fill="none" fill-rule="evenodd">
        <path d="M0 0h48v48H0z"/>
        <g transform="translate(9 5)">
            <mask id="aiqm27rs4b" fill="#fff">
                <use xlink:href="#vfsaxr09aa"/>
            </mask>
            <path d="M26.939 36.04H15.48c-3.467 0-6.934 0-10.4-.002-.793 0-1.502-.272-1.998-.765a2.43 2.43 0 0 1-.704-1.747c.004-1.382 1.106-2.471 2.51-2.479.96-.005 1.92-.006 2.88-.006l11.466.002h2.637l5.129.001c1.324.001 2.36.808 2.579 2.008a2.498 2.498 0 0 1-.458 1.985c-.428.564-1.073.915-1.817.99-.107.01-.215.012-.324.012m-4.989-6.978H10.495s.903-.581 1.434-1.369c.255-.271.349-.512.477-.786.279-.6.542-1.163.74-1.746.492-1.452.357-3.048.238-4.456-.254-3.018-1.185-6.031-2.843-9.212-.866-1.66-.996-3.496-.366-5.17.608-1.618 1.85-2.866 3.498-3.518a6.259 6.259 0 0 1 2.314-.443c1.734 0 3.413.735 4.605 2.016 1.75 1.882 2.137 4.668.962 6.934-1.383 2.671-2.221 4.99-2.637 7.295-.305 1.688-.573 3.69-.252 5.751.153.981.52 1.92 1.124 2.87.046.072.091.146.142.23 0 0 1.008 1.291 2.061 1.604m8.174.691c-.854-.683-1.891-1.035-3.17-1.075-3.169-.1-5.567-2.007-5.967-4.745-.194-1.326-.065-2.713.085-4.02.268-2.34 1.045-4.682 2.377-7.162.977-1.818 1.297-3.659.98-5.628-.615-3.813-3.833-6.729-7.827-7.09A7.515 7.515 0 0 0 15.96 0c-3.405 0-6.747 2.263-7.946 5.38-.946 2.459-.806 4.875.414 7.18 1.78 3.367 2.657 6.663 2.681 10.08.019 2.63-1.38 4.71-3.74 5.564-.76.275-1.639.431-2.689.477a4.915 4.915 0 0 0-3.646 1.893c-.878 1.119-1.22 2.532-.94 3.88.49 2.344 2.477 3.926 4.946 3.935 1.455.005 2.908.007 4.362.007l6.594-.004h5.144c.596 0 1.193.002 1.79.004 1.39.005 2.777.01 4.165-.01 2.164-.031 3.943-1.29 4.64-3.286.67-1.912.038-4.062-1.57-5.348" fill="#222" mask="url(#aiqm27rs4b)"/>
        </g>
    </g>
</svg>
