<svg width="36" height="36" viewBox="0 0 36 36" xmlns="http://www.w3.org/2000/svg">
    <g fill="none" fill-rule="evenodd">
        <circle fill="#000" cx="18" cy="18" r="18"/>
        <g fill="#FFF">
            <path d="M24.2 17.744c-.024-2.498 2.161-3.712 2.261-3.769-1.237-1.707-3.156-1.94-3.83-1.959-1.612-.159-3.173.913-3.994.913-.839 0-2.102-.896-3.463-.87a5.15 5.15 0 0 0-4.293 2.475c-1.855 3.04-.471 7.507 1.308 9.965.888 1.204 1.927 2.549 3.288 2.5 1.331-.052 1.83-.803 3.436-.803 1.59 0 2.056.803 3.443.772 1.43-.021 2.33-1.208 3.188-2.423 1.029-1.378 1.441-2.737 1.456-2.808-.032-.01-2.773-.999-2.8-3.993"/>
            <path d="M21.224 10.47c.508-.928.856-2.19.76-3.47-.737.047-1.657.742-2.186 1.65-.469.8-.89 2.11-.78 3.342.827.09 1.675-.608 2.206-1.522"/>
        </g>
    </g>
</svg>
