<?xml version="1.0" encoding="UTF-8"?>
<svg width="40px" height="40px" viewBox="0 0 40 40" version="1.1" xmlns="http://www.w3.org/2000/svg" xmlns:xlink="http://www.w3.org/1999/xlink">
    <title>578EF293-967A-46B3-8521-878802EA4956</title>
    <g id="LOGIN/MEMBER" stroke="none" stroke-width="1" fill="none" fill-rule="evenodd">
        <g id="LOGIN/login" transform="translate(-254.000000, -577.000000)">
            <g id="btn_애플로그인" transform="translate(40.000000, 547.000000)">
                <g id="apple" transform="translate(214.000000, 30.000000)">
                    <rect id="Rectangle" x="0" y="0" width="40" height="40"></rect>
                    <path d="M29.729407,21.7225308 C29.6838662,17.0598318 33.7977219,14.7925695 33.9859573,14.6871817 C31.6573025,11.4999122 28.044396,11.0641194 26.7753247,11.0299395 C23.7423049,10.7337143 20.8034028,12.7332346 19.2580504,12.7332346 C17.6793013,12.7332346 15.3020696,11.061271 12.7396385,11.1096925 C9.43944574,11.1581139 6.35177693,12.9497069 4.65765776,15.7296667 C1.16619353,21.4063674 3.77112945,29.7433984 7.11989906,34.3320411 C8.79276584,36.5793652 10.7479858,39.0887346 13.310417,38.9975884 C15.815163,38.9007455 16.7533043,37.4993724 19.7772159,37.4993724 C22.770767,37.4993724 23.6481871,38.9975884 26.2591952,38.940622 C28.9491407,38.9007455 30.6432598,36.684753 32.2584416,34.4174907 C34.1954452,31.8454582 34.9726755,29.3076056 35,29.1765829 C34.9392789,29.1566446 29.78102,27.3109336 29.729407,21.7225308" id="Fill-1" fill="#FFFFFF"></path>
                    <path d="M24.1899924,7.24527909 C25.3744321,5.57565968 26.1872305,3.30437562 25.9626415,1 C24.243466,1.08423305 22.0965019,2.33569553 20.8612623,3.96921506 C19.7677276,5.4102019 18.7864875,7.76872734 19.040487,9.98586158 C20.9708831,10.148311 22.9494054,8.89083191 24.1899924,7.24527909" id="Fill-3" fill="#FFFFFF"></path>
                </g>
            </g>
        </g>
    </g>
</svg>