<svg width="36" height="36" viewBox="0 0 36 36" xmlns="http://www.w3.org/2000/svg" xmlns:xlink="http://www.w3.org/1999/xlink">
    <defs>
        <path id="tfm8mp2y1a" d="M0 0h21v19H0z"/>
    </defs>
    <g fill="none" fill-rule="evenodd">
        <circle fill="#F6DE38" cx="18" cy="18" r="18"/>
        <g transform="translate(8 9)">
            <mask id="fsx3i69lpb" fill="#fff">
                <use xlink:href="#tfm8mp2y1a"/>
            </mask>
            <path d="M20.727 6.31c-.44-1.508-1.34-2.72-2.546-3.716C16.517 1.221 14.58.458 12.45.147c-2.039-.297-4.046-.15-6.005.49C4.37 1.315 2.597 2.43 1.307 4.21.597 5.186.157 6.272.036 7.476c-.005.046-.024.09-.036.135v1.014c.073.39.121.785.223 1.167.39 1.454 1.214 2.643 2.327 3.648.706.637 1.5 1.148 2.37 1.579-.134.455-.27.904-.399 1.356-.214.753-.427 1.506-.627 2.263-.028.103-.019.296.037.324a.47.47 0 0 0 .375-.002c.403-.213.801-.438 1.18-.69 1.003-.667 1.993-1.353 2.994-2.024a.51.51 0 0 1 .312-.086c2.282.257 4.5.027 6.63-.85 1.692-.696 3.142-1.713 4.227-3.194.731-.997 1.192-2.102 1.315-3.335.005-.053.024-.104.036-.156v-.973c-.089-.448-.145-.906-.273-1.343" fill="#361F1E" mask="url(#fsx3i69lpb)"/>
        </g>
    </g>
</svg>
