<svg width="48" height="48" viewBox="0 0 48 48" xmlns="http://www.w3.org/2000/svg" xmlns:xlink="http://www.w3.org/1999/xlink">
    <defs>
        <path id="vpa7rdvaxa" d="M0 0h36v34H0z"/>
    </defs>
    <g fill="none" fill-rule="evenodd">
        <g transform="translate(6 7)">
            <mask id="j9duf3rw5b" fill="#fff">
                <use xlink:href="#vpa7rdvaxa"/>
            </mask>
            <path d="m31.686 18.09-1.25 2.284c-1.535 2.808-3.123 5.71-4.666 8.58-.435.81-.889 1.07-1.29 1.183H11.537c-.401-.114-.855-.374-1.29-1.182A1324.58 1324.58 0 0 0 4.56 18.558c-.314-.57-.508-.99-.56-1.415v-.177c.05-.377.15-.701.306-.988 1.773-3.24 3.696-6.764 6.052-11.09.395-.726.868-1.021 1.635-1.022l1.342.002c1.702.002 3.404.004 5.105.004 1.832 0 3.664-.002 5.496-.01h.012c.832 0 1.323.306 1.749 1.09a2845.64 2845.64 0 0 0 4.806 8.787l1.178 2.148c.424.774.425 1.433.004 2.203m3.729-3.229c-2.316-4.224-4.636-8.445-6.938-12.677C27.674.708 26.503 0 24.899 0h-.02c-2.123.008-4.245.01-6.367.01-2.492 0-4.984-.003-7.476-.006h-.005c-1.535 0-2.676.697-3.442 2.105a7676.565 7676.565 0 0 1-7.017 12.86A5.021 5.021 0 0 0 0 16.856v.4c.08.887.452 1.647.869 2.403 2.207 4.007 4.413 8.015 6.586 12.044.653 1.21 1.54 2.015 2.836 2.297h15.437c1.297-.282 2.184-1.087 2.837-2.3 2.264-4.21 4.565-8.397 6.855-12.59.777-1.42.772-2.831-.005-4.249" fill="#231F20" mask="url(#j9duf3rw5b)"/>
        </g>
        <path d="M24 28.2a4.204 4.204 0 0 1-4.2-4.2c0-2.316 1.884-4.2 4.2-4.2 2.316 0 4.2 1.884 4.2 4.2 0 2.316-1.884 4.2-4.2 4.2M24 16c-4.411 0-8 3.589-8 8s3.589 8 8 8 8-3.589 8-8-3.589-8-8-8" fill="#231F20"/>
    </g>
</svg>
