<?xml version="1.0" encoding="UTF-8"?>
<svg width="48px" height="48px" viewBox="0 0 48 48" version="1.1" xmlns="http://www.w3.org/2000/svg" xmlns:xlink="http://www.w3.org/1999/xlink">
    <title>3181DF3E-8428-450E-A2B7-BAFA427F030E</title>
    <defs>
        <polygon id="path-1" points="0 0 48 0 48 48 0 48"></polygon>
    </defs>
    <g id="SHOP" stroke="none" stroke-width="1" fill="none" fill-rule="evenodd">
        <g id="SHOP/store_review_02" transform="translate(-336.000000, -248.000000)">
            <g id="Group-8" transform="translate(336.000000, 248.000000)">
                <g id="Group-3">
                    <mask id="mask-2" fill="white">
                        <use xlink:href="#path-1"></use>
                    </mask>
                    <g id="Clip-2"></g>
                    <path d="M46.4099233,24.0151965 C46.2702916,11.5732653 36.5010463,1.62402071 23.9967653,1.61173718 C11.6057511,1.59957764 1.60774109,11.4345179 1.5846829,23.9857837 C1.56180563,36.4232523 11.450402,46.4156019 23.9926077,46.4143848 C36.4639329,46.4131677 46.2631935,36.4921188 46.4099233,24.0151965 L46.4099233,24.0151965 Z M0,22.2926189 C0.152205574,21.1092089 0.279060453,19.9236691 0.55173253,18.7568925 C2.02876543,12.4381039 5.46459585,7.47656527 10.8654094,3.89205415 C14.0682162,1.76631795 17.6084915,0.496089407 21.4268132,0.128936154 C28.3280836,-0.534576713 34.4735992,1.3591024 39.7394456,5.894865 C43.8796197,9.46101845 46.5143681,13.9705124 47.5229202,19.3334854 C48.9623327,26.9876165 47.143978,33.8563236 42.0788077,39.7854429 C38.5423857,43.925248 34.0209371,46.4630681 28.6945533,47.571019 C27.7059776,47.7766045 26.7009746,47.8666686 25.7020558,48.0000406 L22.2616623,48.0000406 C21.2464176,47.8660601 20.2268127,47.7648394 19.2216069,47.5581382 C14.949812,46.6801145 11.1717472,44.8058073 7.93405777,41.8863304 C4.16998655,38.4921913 1.71979116,34.3099912 0.56998503,29.3675201 C0.291127383,28.1688966 0.15169856,26.9510026 0,25.7338186 L0,22.2926189 Z" id="Fill-1" fill="#999999" mask="url(#mask-2)"></path>
                </g>
                <g id="Group" transform="translate(23.000000, 13.000000)" fill="#999999">
                    <path d="M0.0148434234,14.2352765 C0.0148434234,11.7082073 0.0325875984,9.18103667 0.000132440666,6.65406891 C-0.00654058243,6.14157571 0.237783059,5.97676244 0.998356032,5.99593149 C2.61034609,6.03650091 2.49811797,5.88862537 2.49842129,7.0149339 C2.50024121,11.9512181 2.49963457,16.8875023 2.49857295,21.8237865 C2.49842129,22.5686411 2.49523644,22.5686411 1.36491732,22.5698581 C1.21386435,22.570061 1.06038481,22.5582959 0.911910051,22.5716838 C0.210029349,22.6348706 -0.000170878565,22.4233011 0.00392393106,21.9681122 C0.0269761927,19.3906355 0.014995083,16.812956 0.0148434234,14.2352765" id="Fill-4"></path>
                    <path d="M0.015798879,1.57746523 C0.015798879,1.24043477 0.0133723251,0.903505736 0.0173154751,0.566475278 C0.0185287521,0.465761692 -0.0165046192,0.34030076 0.0572019541,0.268492887 C0.554190515,-0.216210261 1.29777761,0.11919742 1.92140195,0.042115522 C2.33922419,-0.00961048871 2.49636549,0.179544433 2.49528194,0.441318617 C2.49209709,1.19956108 2.49012551,1.95780354 2.49636549,2.71594458 C2.49892177,3.01788249 2.27416222,3.11595906 1.84238729,3.1342153 C0.0139789636,3.21160147 0.014585602,3.21849827 0.014585602,1.98184092 C0.014585602,1.84704903 0.014585602,1.71225713 0.015798879,1.57746523" id="Fill-6"></path>
                </g>
            </g>
        </g>
    </g>
</svg>