<svg width="40" height="40" viewBox="0 0 40 40" xmlns="http://www.w3.org/2000/svg" xmlns:xlink="http://www.w3.org/1999/xlink">
    <defs>
        <path id="nle3vwogja" d="M0 0h34v14.167H0z"/>
        <path id="frdpx24ucc" d="M0 0h34v19.833H0z"/>
    </defs>
    <g fill="none" fill-rule="evenodd">
        <path d="M0 0h40v40H0z"/>
        <g transform="translate(3 7)">
            <mask id="3m5lsl3n2b" fill="#fff">
                <use xlink:href="#nle3vwogja"/>
            </mask>
            <path d="M3.786 0h26.437c.073.028.143.067.218.083 1.818.374 2.983 1.47 3.523 3.285.09.301.011.441-.232.594-2.11 1.323-4.212 2.656-6.316 3.988-3.064 1.94-6.129 3.88-9.19 5.824-.74.47-1.493.547-2.244.074C10.724 10.54 5.472 7.22.214 3.911c-.195-.123-.251-.24-.191-.463C.447 1.873 1.397.798 2.906.253c.287-.104.586-.17.88-.253" fill="#222" mask="url(#3m5lsl3n2b)"/>
        </g>
        <g transform="translate(3 13.611)">
            <mask id="nikjm8q5id" fill="#fff">
                <use xlink:href="#frdpx24ucc"/>
            </mask>
            <path d="M34 0v.452c0 4.951.001 9.902-.002 14.853 0 2.364-1.445 4.09-3.752 4.49a3.527 3.527 0 0 1-.599.036c-8.427.002-16.853.004-25.28 0-2.417 0-4.349-1.892-4.357-4.313C-.008 10.446.004 5.375.004.303.004.224.013.145.021 0c.142.083.252.144.36.21 4.722 2.924 9.447 5.844 14.165 8.776 1.638 1.018 3.261 1.024 4.896.012L33.578.243C33.698.17 33.823.102 34 0" fill="#222" mask="url(#nikjm8q5id)"/>
        </g>
    </g>
</svg>
