<svg width="32" height="33" viewBox="0 0 32 33" xmlns="http://www.w3.org/2000/svg" xmlns:xlink="http://www.w3.org/1999/xlink">
    <defs>
        <path id="xz89r7brva" d="M0 0h32v32.005H0z"/>
    </defs>
    <g fill="none" fill-rule="evenodd">
        <g>
            <mask id="ef2f9ikdyb" fill="#fff">
                <use xlink:href="#xz89r7brva"/>
            </mask>
            <path d="M30.054 16.036c.015-7.747-6.28-14.074-14.02-14.09C8.289 1.931 1.96 8.23 1.946 15.97c-.015 7.748 6.28 14.075 14.02 14.09 7.745.016 14.074-6.283 14.088-14.023m-14.026 15.97C7.211 32.02-.003 24.816 0 15.998.003 7.179 7.222-.022 16.039 0 24.802.021 31.969 7.18 32 15.941c.03 8.821-7.155 16.049-15.972 16.065" fill="#FF5B2C" mask="url(#ef2f9ikdyb)"/>
        </g>
        <path d="M15.945 24.003c-4.384-.025-7.952-3.629-7.942-8.022.009-4.441 3.666-8.035 8.119-7.978 4.376.056 7.913 3.689 7.875 8.088-.038 4.38-3.658 7.937-8.052 7.912" fill="#FF5B2C"/>
    </g>
</svg>
