<?xml version="1.0" encoding="UTF-8"?>
<svg width="48px" height="49px" viewBox="0 0 48 49" version="1.1" xmlns="http://www.w3.org/2000/svg" xmlns:xlink="http://www.w3.org/1999/xlink">
    <title>0D53D6F3-AA60-4713-9AEE-12A30213DCF8</title>
    <defs>
        <polygon id="path-1" points="0 0 36 0 36 39 0 39"></polygon>
    </defs>
    <g id="HOME" stroke="none" stroke-width="1" fill="none" fill-rule="evenodd">
        <g id="HOME/navi" transform="translate(-49.000000, -22.000000)">
            <g id="NAVI/navi_bar_home" transform="translate(0.000000, 0.294688)">
                <g id="Group" transform="translate(49.000000, 22.000000)">
                    <rect id="Rectangle" x="0" y="0" width="48" height="48"></rect>
                    <g id="Group-3" transform="translate(6.000000, 6.000000)">
                        <mask id="mask-2" fill="white">
                            <use xlink:href="#path-1"></use>
                        </mask>
                        <g id="Clip-2"></g>
                        <path d="M35.1220848,14.990427 C35.0786585,14.9488247 35.0383621,14.906056 34.9910235,14.8656202 C34.2406486,14.2198129 33.5141385,13.5498996 32.788411,12.8799864 C31.0795279,11.3025992 29.3718186,9.72443443 27.663718,8.14626965 C27.5459584,7.99463519 27.4094199,7.84999925 27.2595796,7.7111954 C24.7404638,5.38069042 22.2143059,3.05718396 19.6869743,0.734843912 C19.5277446,0.588263936 19.3489535,0.45529218 19.1615553,0.340983127 C18.9209502,0.194403151 18.6752592,0.0999232197 18.4287857,0.04626795 C18.405312,0.0408246618 18.3814471,0.037325405 18.3575822,0.0326597294 C18.2871612,0.0198291214 18.2167402,0.00933135126 18.1467104,0.00427686933 C18.097807,0 18.0489035,0 18,0 C17.9510965,0 17.902193,0 17.8532896,0.00427686933 C17.7832598,0.00933135126 17.7128388,0.0198291214 17.6424178,0.0326597294 C17.6185529,0.037325405 17.594688,0.0408246618 17.5712143,0.04626795 C17.3247408,0.0999232197 17.0790498,0.194403151 16.8384447,0.340983127 C16.6510465,0.45529218 16.4722554,0.588263936 16.3130257,0.734843912 C13.7856941,3.05718396 11.2595362,5.38069042 8.74042035,7.7111954 C8.5905801,7.84999925 8.4540416,7.99463519 8.33628203,8.14626965 C6.62818144,9.72443443 4.92047208,11.3025992 3.21158904,12.8799864 C2.48586146,13.5498996 1.75935143,14.2198129 1.0089765,14.8656202 C0.96163794,14.906056 0.921341477,14.9488247 0.877915191,14.990427 C0.709296007,15.1160114 0.552413658,15.2660907 0.408833054,15.4433863 C0.264078767,15.6222372 0,16.074419 0,16.3807983 L0,36.9968637 C0,37.4564328 0.0766806494,37.580462 0.0880262557,37.6041792 C0.359538351,38.1566729 0.742550371,38.4902687 1.19246234,38.6928368 C1.19989567,38.6963361 1.20772023,38.6998353 1.21515356,38.7037234 C1.29222543,38.7371607 1.37086222,38.7678764 1.45145515,38.7943152 C1.51718142,38.816866 1.5844726,38.8366951 1.65371992,38.8534138 C2.16114239,38.9828863 2.72646656,39 3.30157143,39 C8.05694538,38.9984386 12.8123193,38.9984386 17.5680845,38.9980497 L17.5680845,30.8257301 C17.5680845,30.2887886 18.0410789,29.8537143 18.625182,29.8537143 C19.2092851,29.8537143 19.6826708,30.2887886 19.6826708,30.8257301 L19.6826708,38.9980497 C24.0209959,38.9984386 28.3597122,38.9984386 32.6984286,39 C33.2735334,39 33.8388576,38.9828863 34.3462801,38.8534138 C34.4155274,38.8366951 34.4828186,38.816866 34.5485448,38.7943152 C34.6291378,38.7678764 34.7077746,38.7371607 34.7848464,38.7037234 C34.7922798,38.6998353 34.8001043,38.6963361 34.8075377,38.6928368 C35.2574496,38.4902687 35.6404616,38.1566729 35.9119737,37.6041792 C35.9233194,37.580462 36,37.2841916 36,36.968092 L36,16.7353897 C36,16.2178885 35.7359212,15.6222372 35.5911669,15.4433863 C35.4475863,15.2660907 35.290704,15.1160114 35.1220848,14.990427 Z" id="Fill-1" fill="#FF5B2C" mask="url(#mask-2)"></path>
                    </g>
                </g>
            </g>
        </g>
    </g>
</svg>