<svg width="48" height="48" viewBox="0 0 48 48" xmlns="http://www.w3.org/2000/svg" xmlns:xlink="http://www.w3.org/1999/xlink">
    <defs>
        <path id="cq1tamh1ca" d="M0 0h36v36.015H0z"/>
    </defs>
    <g fill="none" fill-rule="evenodd">
        <path d="M0 0h48v48H0z"/>
        <g transform="translate(6 6)">
            <mask id="rhy2qm1qjb" fill="#fff">
                <use xlink:href="#cq1tamh1ca"/>
            </mask>
            <path d="M30.076 33.776h-.023c-.973 0-1.886-.38-2.572-1.068a3.748 3.748 0 0 1-1.086-2.712c.023-2.009 1.636-3.583 3.673-3.583h.022a3.698 3.698 0 0 1 2.646 1.12c.684.7 1.05 1.62 1.032 2.592-.037 2-1.693 3.637-3.692 3.65m-5.8-5.145-.08.32-.33-.002c-1.675-.01-5.948-.02-8.964-.02-1.26 0-2.218.001-2.77.005l-.329.002-.081-.318a5.982 5.982 0 0 0-1.549-2.714 6.129 6.129 0 0 0-1.035-.84l-.335-.216.198-.346a752.25 752.25 0 0 0 2.968-5.256c1.385-2.466 2.817-5.016 3.753-6.63l.077-.124.007-.01.004-.007c.08-.124.08-.124.233-.492l.141-.339.355.094c.475.126.964.19 1.452.19h.022c.592-.003.996-.059 1.49-.206l.283-.084.175.236c.166.222.229.296.259.331a.769.769 0 0 1 .128.199l.016.033c.848 1.692 2.312 4.092 3.727 6.412 1.262 2.069 2.454 4.023 3.1 5.298l.046.097.053.107.18.357-.347.199a6.014 6.014 0 0 0-2.847 3.724m-18.32 5.146H5.928a3.666 3.666 0 0 1-2.589-1.084 3.663 3.663 0 0 1-1.108-2.608A3.622 3.622 0 0 1 3.303 27.5a3.706 3.706 0 0 1 2.637-1.088v.173h.011v-.173c1.002.003 1.927.382 2.605 1.065.683.688 1.056 1.626 1.051 2.64a3.694 3.694 0 0 1-3.651 3.659m8.355-27.877c.02-2.007 1.673-3.641 3.684-3.644A3.66 3.66 0 0 1 20.6 3.343a3.68 3.68 0 0 1-2.604 6.293h-.033a3.637 3.637 0 0 1-2.589-1.094A3.687 3.687 0 0 1 14.311 5.9m19.96 19.97a5.875 5.875 0 0 0-4.182-1.746h-.015c-.04 0-.08.002-.119.003l-.054.002-.292.008-.11-.27-.115-.288a6.766 6.766 0 0 0-.24-.563c-.624-1.24-1.786-3.135-3.016-5.142-1.373-2.237-2.791-4.55-3.666-6.28a3.11 3.11 0 0 1-.062-.132l-.005-.012-.003-.006a4.317 4.317 0 0 0-.12-.239 4.972 4.972 0 0 1-.25-.525l-.104-.267.21-.196c1.209-1.12 1.845-2.598 1.84-4.273C23.958 2.666 21.284 0 18.008 0h-.02a5.945 5.945 0 0 0-4.21 1.764 5.882 5.882 0 0 0-1.745 4.201c.006 1.658.742 3.268 2.018 4.417l.288.259-.234.308a3.363 3.363 0 0 0-.215.336l-.02.032c-1.009 1.727-2.71 4.756-4.212 7.428-1.154 2.054-2.245 3.995-2.929 5.182l-.13.227-.261-.017a5.868 5.868 0 0 0-.361-.014H5.95c-3.26 0-5.93 2.655-5.95 5.919-.02 3.264 2.592 5.943 5.822 5.972h.059a6.04 6.04 0 0 0 4.268-1.73 5.87 5.87 0 0 0 1.576-2.743l.08-.316.326-.002a1146.103 1146.103 0 0 1 4.972-.002h1.899c.784 0 3.873.012 4.873.017l.325.002.08.314c.26 1.01.79 1.942 1.536 2.694a5.927 5.927 0 0 0 4.219 1.767h.018c3.32 0 5.932-2.595 5.947-5.908a5.933 5.933 0 0 0-1.73-4.237" fill="#231F20" mask="url(#rhy2qm1qjb)"/>
        </g>
    </g>
</svg>
